SplineFontDB: 3.2
FontName: Samaano-Thin
FullName: Samaano Thin
FamilyName: Samaano
Weight: Thin
Copyright: Copyright 2024, Samaano Font Authors (https://github.com/mitradranirban/samaano-fonts)
UComments: "2024-8-27: Created with FontForge (http://fontforge.org)"
Version: 0.2
StyleMapFamilyName: Samaano Thin
ItalicAngle: 0
UnderlinePosition: -204
UnderlineWidth: 102
Ascent: 1638
Descent: 410
InvalidEm: 0
UFOAscent: 1638
UFODescent: -410
LayerCount: 2
Layer: 0 0 "Back" 1
Layer: 1 0 "public.default" 0 "glyphs"
StyleMap: 0x0000
FSType: 0
OS2Version: 0
OS2_WeightWidthSlopeOnly: 0
OS2_UseTypoMetrics: 0
CreationTime: 1725521133
ModificationTime: 1725521133
PfmFamily: 16
TTFWeight: 100
TTFWidth: 1
LineGap: 0
VLineGap: 0
Panose: 2 7 2 9 2 2 2 2 4 4
OS2TypoAscent: 1638
OS2TypoAOffset: 0
OS2TypoDescent: -410
OS2TypoDOffset: 0
OS2TypoLinegap: 0
OS2WinAscent: 1800
OS2WinAOffset: 0
OS2WinDescent: 600
OS2WinDOffset: 0
HheadAscent: 1638
HheadAOffset: 0
HheadDescent: -410
HheadDOffset: 0
OS2CapHeight: 1554
OS2XHeight: 1024
OS2FamilyClass: 1031
OS2Vendor: 'anir'
DEI: 91125
LangName: 1033 "Copyright 2024, Samaano Font Authors (https://github.com/mitradranirban/samaano-fonts)" "" "" "" "" "Version 0.001" "" "" "" "Dr Anirban Mitra" "A Monspace Variable Font Family in Latin and Devanagari created using rectangular components only " "" "https://github.com/mitradranirban" "This Font Software is licensed under the SIL Open Font License, Version 1.1." "http://scripts.sil.org/OFL"
PickledDataWithLists: "(dp0
."
Encoding: UnicodeBmp
UnicodeInterp: none
NameList: AGL For New Fonts
DisplaySize: -128
AntiAlias: 1
FitToEm: 0
WinInfo: 2310 10 4
Grid
-1024 1545 m 0
 3072 1545 l 1024
1098 2662 m 0
 1098 -1434 l 1024
102 2662 m 0
 102 -1434 l 1024
-1024 2436 m 0
 3072 2436 l 1024
-1024 1023 m 0
 3072 1023 l 1024
EndSplineSet
BeginChars: 65536 134

StartChar: .notdef
Encoding: 0 0 0
GlifName: _notdef
Width: 1200
VWidth: 0
Flags: W
LayerCount: 2
Fore
SplineSet
100 0 m 257
 100 64 l 257
 100 1632 l 257
 1098 1640 l 257
 1100 0 l 257
 1030 0 l 257
 170 0 l 257
 100 0 l 257
170 64 m 257
 567 827 l 257
 174 1546 l 257
 170 64 l 257
266 64 m 257
 946 64 l 257
 605 750 l 257
 266 64 l 257
294 1548 m 257
 607 909 l 257
 925 1558 l 257
 294 1548 l 257
645 832 m 257
 1029 64 l 257
 1021 1559 l 257
 645 832 l 257
EndSplineSet
EndChar

StartChar: A
Encoding: 65 65 1
GlifName: A_
Width: 1200
VWidth: 0
GlyphClass: 2
Flags: W
LayerCount: 2
Fore
SplineSet
125 16 m 257
 183 16 l 257
 175 1554 l 257
 116 1554 l 257
 125 16 l 257
175 1494 m 257
 1098 1492 l 257
 1092 1553 l 257
 175 1554 l 257
 175 1494 l 257
169 970 m 257
 166 908 l 257
 1092 911 l 257
 1092 970 l 257
 169 970 l 257
1077 2 m 257
 1137 5 l 257
 1136 1553 l 257
 1076 1553 l 257
 1077 2 l 257
EndSplineSet
EndChar

StartChar: B
Encoding: 66 66 2
GlifName: B_
Width: 1200
VWidth: 0
GlyphClass: 2
Flags: W
LayerCount: 2
Fore
SplineSet
169 2 m 257
 236 2 l 257
 218 1554 l 257
 161 1555 l 257
 169 2 l 257
257 1494 m 257
 1093 1025 l 257
 1096 1081 l 257
 257 1552 l 257
 257 1494 l 257
280 961 m 257
 1092 1025 l 257
 1096 1079 l 257
 280 1021 l 257
 280 961 l 257
262 62 m 257
 262 2 l 257
 1130 434 l 257
 1130 500 l 257
 262 62 l 257
268 719 m 257
 1130 430 l 257
 1131 501 l 257
 266 781 l 257
 268 719 l 257
215 1020 m 257
 215 960 l 257
 280 960 l 257
 280 1020 l 257
 215 1020 l 257
206 781 m 257
 206 721 l 257
 266 721 l 257
 266 781 l 257
 206 781 l 257
202 62 m 257
 202 2 l 257
 262 2 l 257
 262 62 l 257
 202 62 l 257
197 1554 m 257
 197 1494 l 257
 257 1494 l 257
 257 1554 l 257
 197 1554 l 257
EndSplineSet
EndChar

StartChar: C
Encoding: 67 67 3
GlifName: C_
Width: 1030
VWidth: 0
GlyphClass: 2
Flags: W
LayerCount: 2
Fore
SplineSet
60 1554 m 257
 120 1554 l 257
 120 0 l 257
 61 0 l 257
 60 1554 l 257
89 1554 m 257
 942 1554 l 257
 943 1495 l 257
 89 1494 l 257
 89 1554 l 257
94 61 m 257
 940 58 l 257
 943 -2 l 257
 94 0 l 257
 94 61 l 257
EndSplineSet
EndChar

StartChar: D
Encoding: 68 68 4
GlifName: D_
Width: 1024
VWidth: 0
GlyphClass: 2
Flags: W
LayerCount: 2
Fore
SplineSet
116 1554 m 257
 122 1 l 257
 178 0 l 257
 177 1554 l 257
 116 1554 l 257
256 1552 m 257
 256 1493 l 257
 948 961 l 257
 947 1024 l 257
 256 1552 l 257
257 58 m 257
 257 0 l 257
 948 960 l 257
 949 1025 l 257
 257 58 l 257
177 1553 m 257
 175 1494 l 257
 256 1493 l 257
 256 1553 l 257
 177 1553 l 257
178 58 m 257
 178 0 l 257
 257 0 l 257
 257 58 l 257
 178 58 l 257
EndSplineSet
EndChar

StartChar: E
Encoding: 69 69 5
GlifName: E_
Width: 1200
VWidth: 0
GlyphClass: 2
Flags: W
LayerCount: 2
Fore
SplineSet
210 1554 m 257
 212 0 l 257
 274 0 l 257
 269 1552 l 257
 210 1554 l 257
246 1553 m 257
 253 1493 l 257
 1009 1490 l 257
 1007 1553 l 257
 246 1553 l 257
253 60 m 257
 255 0 l 257
 1027 -1 l 257
 1022 60 l 257
 253 60 l 257
252 859 m 257
 252 798 l 257
 776 798 l 257
 776 859 l 257
 252 859 l 257
EndSplineSet
EndChar

StartChar: F
Encoding: 70 70 6
GlifName: F_
Width: 1200
VWidth: 0
GlyphClass: 2
Flags: W
LayerCount: 2
Fore
SplineSet
204 1554 m 257
 204 3 l 257
 268 3 l 257
 263 1554 l 257
 204 1554 l 257
263 1554 m 257
 264 1491 l 257
 1018 1497 l 257
 1017 1554 l 257
 263 1554 l 257
254 868 m 257
 255 809 l 257
 845 806 l 257
 844 864 l 257
 254 868 l 257
EndSplineSet
EndChar

StartChar: G
Encoding: 71 71 7
GlifName: G_
Width: 1024
VWidth: 0
GlyphClass: 2
Flags: W
LayerCount: 2
Fore
SplineSet
110 1529 m 257
 110 -4 l 257
 169 -4 l 257
 169 1529 l 257
 110 1529 l 257
163 1529 m 257
 163 1469 l 257
 868 1469 l 257
 868 1529 l 257
 163 1529 l 257
141 60 m 257
 141 0 l 257
 904 0 l 257
 904 60 l 257
 141 60 l 257
843 561 m 257
 843 18 l 257
 904 18 l 257
 904 561 l 257
 843 561 l 257
EndSplineSet
EndChar

StartChar: H
Encoding: 72 72 8
GlifName: H_
Width: 1024
VWidth: 0
GlyphClass: 2
Flags: W
LayerCount: 2
Fore
SplineSet
89 1553 m 257
 89 1 l 257
 148 1 l 257
 148 1553 l 257
 89 1553 l 257
824 1554 m 257
 824 1 l 257
 885 1 l 257
 885 1554 l 257
 824 1554 l 257
131 923 m 257
 131 864 l 257
 848 864 l 257
 848 923 l 257
 131 923 l 257
EndSplineSet
EndChar

StartChar: I
Encoding: 73 73 9
GlifName: I_
Width: 1024
VWidth: 0
GlyphClass: 2
Flags: W
LayerCount: 2
Fore
SplineSet
144 1550 m 257
 144 1489 l 257
 845 1489 l 257
 845 1550 l 257
 144 1550 l 257
468 1515 m 257
 468 34 l 257
 527 34 l 257
 527 1515 l 257
 468 1515 l 257
124 66 m 257
 124 6 l 257
 880 6 l 257
 880 66 l 257
 124 66 l 257
EndSplineSet
EndChar

StartChar: J
Encoding: 74 74 10
GlifName: J_
Width: 1024
VWidth: 0
GlyphClass: 2
Flags: W
LayerCount: 2
Fore
SplineSet
841 1527 m 257
 841 1 l 257
 900 1 l 257
 900 1527 l 257
 841 1527 l 257
125 60 m 257
 125 0 l 257
 867 0 l 257
 867 60 l 257
 125 60 l 257
125 503 m 257
 125 29 l 257
 185 27 l 257
 185 503 l 257
 125 503 l 257
EndSplineSet
EndChar

StartChar: K
Encoding: 75 75 11
GlifName: K_
Width: 1024
VWidth: 0
GlyphClass: 2
Flags: W
LayerCount: 2
Fore
SplineSet
118 1553 m 257
 118 5 l 257
 177 5 l 257
 177 1553 l 257
 118 1553 l 257
176 1015 m 257
 179 944 l 257
 764 1552 l 257
 693 1554 l 257
 176 1015 l 257
176 934 m 257
 156 844 l 257
 748 3 l 257
 797 1 l 257
 176 934 l 257
EndSplineSet
EndChar

StartChar: L
Encoding: 76 76 12
GlifName: L_
Width: 1024
VWidth: 0
GlyphClass: 2
Flags: W
LayerCount: 2
Fore
SplineSet
128 1554 m 257
 128 0 l 257
 188 0 l 257
 188 1554 l 257
 128 1554 l 257
143 61 m 257
 149 0 l 257
 893 0 l 257
 888 61 l 257
 143 61 l 257
EndSplineSet
EndChar

StartChar: M
Encoding: 77 77 13
GlifName: M_
Width: 1024
VWidth: 0
GlyphClass: 2
Flags: W
LayerCount: 2
Fore
SplineSet
101 1554 m 257
 101 2 l 257
 161 2 l 257
 161 1554 l 257
 101 1554 l 257
863 1554 m 257
 863 -3 l 257
 924 -3 l 257
 924 1554 l 257
 863 1554 l 257
101 1554 m 257
 476 1033 l 257
 545 1033 l 257
 161 1554 l 257
 101 1554 l 257
863 1554 m 257
 477 1034 l 257
 545 1033 l 257
 924 1554 l 257
 863 1554 l 257
EndSplineSet
EndChar

StartChar: N
Encoding: 78 78 14
GlifName: N_
Width: 1024
VWidth: 0
GlyphClass: 2
Flags: W
LayerCount: 2
Fore
SplineSet
97 1555 m 257
 97 -1 l 257
 159 0 l 257
 157 1554 l 257
 97 1555 l 257
865 1554 m 257
 865 0 l 257
 926 0 l 257
 925 1554 l 257
 865 1554 l 257
98 1554 m 257
 865 0 l 257
 926 0 l 257
 158 1553 l 257
 98 1554 l 257
EndSplineSet
EndChar

StartChar: O
Encoding: 79 79 15
GlifName: O_
Width: 1024
VWidth: 0
GlyphClass: 2
Flags: W
LayerCount: 2
Fore
SplineSet
110 1554 m 257
 110 2 l 257
 169 2 l 257
 169 1554 l 257
 110 1554 l 257
851 1554 m 257
 851 0 l 257
 910 0 l 257
 910 1554 l 257
 851 1554 l 257
148 1554 m 257
 148 1493 l 257
 880 1493 l 257
 880 1554 l 257
 148 1554 l 257
150 61 m 257
 150 0 l 257
 888 0 l 257
 888 61 l 257
 150 61 l 257
EndSplineSet
EndChar

StartChar: P
Encoding: 80 80 16
GlifName: P_
Width: 1024
VWidth: 0
GlyphClass: 2
Flags: W
LayerCount: 2
Fore
SplineSet
114 1535 m 257
 112 -1 l 257
 173 -1 l 257
 173 1535 l 257
 114 1535 l 257
114 1552 m 257
 114 1472 l 257
 874 1472 l 257
 874 1552 l 257
 114 1552 l 257
813 1536 m 257
 813 872 l 257
 874 872 l 257
 874 1536 l 257
 813 1536 l 257
159 927 m 257
 162 866 l 257
 849 871 l 257
 846 931 l 257
 159 927 l 257
EndSplineSet
EndChar

StartChar: Q
Encoding: 81 81 17
GlifName: Q_
Width: 1024
VWidth: 0
GlyphClass: 2
Flags: W
LayerCount: 2
Fore
SplineSet
110 1554 m 257
 112 0 l 257
 171 0 l 257
 169 1554 l 257
 110 1554 l 257
853 1554 m 257
 853 0 l 257
 911 0 l 257
 911 1554 l 257
 853 1554 l 257
150 1554 m 257
 150 1496 l 257
 861 1496 l 257
 861 1554 l 257
 150 1554 l 257
150 62 m 257
 150 0 l 257
 862 0 l 257
 862 62 l 257
 150 62 l 257
614 13 m 257
 721 -204 l 257
 782 -165 l 257
 663 52 l 257
 614 13 l 257
EndSplineSet
EndChar

StartChar: R
Encoding: 82 82 18
GlifName: R_
Width: 1024
VWidth: 0
GlyphClass: 2
Flags: W
LayerCount: 2
Fore
SplineSet
112 1550 m 257
 112 -1 l 257
 172 -1 l 257
 172 1550 l 257
 112 1550 l 257
154 1551 m 257
 154 1491 l 257
 847 1491 l 257
 847 1551 l 257
 154 1551 l 257
787 1551 m 257
 787 872 l 257
 874 872 l 257
 874 1551 l 257
 787 1551 l 257
142 929 m 257
 142 868 l 257
 862 868 l 257
 862 929 l 257
 142 929 l 257
405 870 m 257
 836 1 l 257
 893 1 l 257
 463 875 l 257
 405 870 l 257
EndSplineSet
EndChar

StartChar: S
Encoding: 83 83 19
GlifName: S_
Width: 1024
VWidth: 0
GlyphClass: 2
Flags: W
LayerCount: 2
Fore
SplineSet
146 1554 m 257
 146 1494 l 257
 744 1494 l 257
 744 1554 l 257
 146 1554 l 257
146 1542 m 257
 146 1028 l 257
 205 1028 l 257
 205 1542 l 257
 146 1542 l 257
174 60 m 257
 174 0 l 257
 882 0 l 257
 882 60 l 257
 174 60 l 257
859 0 m 257
 918 0 l 257
 918 355 l 257
 859 355 l 257
 859 0 l 257
146 1028 m 257
 859 355 l 257
 918 355 l 257
 205 1028 l 257
 146 1028 l 257
EndSplineSet
EndChar

StartChar: T
Encoding: 84 84 20
GlifName: T_
Width: 1024
VWidth: 0
GlyphClass: 2
Flags: W
LayerCount: 2
Fore
SplineSet
118 1553 m 257
 119 1493 l 257
 903 1494 l 257
 903 1554 l 257
 118 1553 l 257
482 1512 m 257
 482 12 l 257
 541 12 l 257
 541 1512 l 257
 482 1512 l 257
EndSplineSet
EndChar

StartChar: U
Encoding: 85 85 21
GlifName: U_
Width: 1024
VWidth: 0
GlyphClass: 2
Flags: W
LayerCount: 2
Fore
SplineSet
157 1554 m 257
 157 0 l 257
 218 0 l 257
 219 1554 l 257
 157 1554 l 257
807 1553 m 257
 807 0 l 257
 868 0 l 257
 867 1553 l 257
 807 1553 l 257
204 61 m 257
 205 0 l 257
 824 0 l 257
 824 61 l 257
 204 61 l 257
EndSplineSet
EndChar

StartChar: V
Encoding: 86 86 22
GlifName: V_
Width: 1024
VWidth: 0
GlyphClass: 2
Flags: W
LayerCount: 2
Fore
SplineSet
87 1551 m 257
 495 0 l 257
 555 0 l 257
 151 1553 l 257
 87 1551 l 257
829 1549 m 257
 495 0 l 257
 555 0 l 257
 898 1554 l 257
 829 1549 l 257
EndSplineSet
EndChar

StartChar: W
Encoding: 87 87 23
GlifName: W_
Width: 1024
VWidth: 0
GlyphClass: 2
Flags: W
LayerCount: 2
Fore
SplineSet
104 1546 m 257
 104 0 l 257
 164 0 l 257
 164 1546 l 257
 104 1546 l 257
862 1533 m 257
 862 12 l 257
 922 12 l 257
 922 1533 l 257
 862 1533 l 257
483 1028 m 257
 484 1 l 257
 542 1 l 257
 543 1028 l 257
 483 1028 l 257
112 60 m 257
 113 0 l 257
 922 0 l 257
 922 60 l 257
 112 60 l 257
EndSplineSet
EndChar

StartChar: X
Encoding: 88 88 24
GlifName: X_
Width: 1200
VWidth: 0
GlyphClass: 2
Flags: W
LayerCount: 2
Fore
SplineSet
124 1554 m 257
 195 1554 l 257
 1039 0 l 257
 966 -2 l 257
 124 1554 l 257
140 0 m 257
 868 1554 l 257
 943 1554 l 257
 197 2 l 257
 140 0 l 257
EndSplineSet
PickledDataWithLists: "(dp0
."
EndChar

StartChar: Y
Encoding: 89 89 25
GlifName: Y_
Width: 1024
VWidth: 0
GlyphClass: 2
Flags: W
LayerCount: 2
Fore
SplineSet
480 895 m 257
 486 -2 l 257
 545 -2 l 257
 539 895 l 257
 480 895 l 257
171 1547 m 257
 171 859 l 257
 232 859 l 257
 232 1547 l 257
 171 1547 l 257
793 1536 m 257
 793 859 l 257
 853 859 l 257
 853 1536 l 257
 793 1536 l 257
217 919 m 257
 217 859 l 257
 826 859 l 257
 826 919 l 257
 217 919 l 257
EndSplineSet
EndChar

StartChar: Z
Encoding: 90 90 26
GlifName: Z_
Width: 1024
VWidth: 0
GlyphClass: 2
Flags: W
LayerCount: 2
Fore
SplineSet
98 1550 m 257
 98 1491 l 257
 926 1491 l 257
 926 1550 l 257
 98 1550 l 257
99 60 m 257
 99 1 l 257
 926 1 l 257
 926 60 l 257
 99 60 l 257
866 1491 m 257
 99 60 l 257
 159 60 l 257
 926 1491 l 257
 866 1491 l 257
EndSplineSet
EndChar

StartChar: a
Encoding: 97 97 27
GlifName: a
Width: 1024
VWidth: 0
GlyphClass: 2
Flags: W
LayerCount: 2
Fore
SplineSet
180 1021 m 257
 180 955 l 257
 833 957 l 257
 829 1024 l 257
 180 1021 l 257
791 1025 m 257
 812 1 l 257
 872 1 l 257
 868 1025 l 257
 791 1025 l 257
183 602 m 257
 187 539 l 257
 811 538 l 257
 807 600 l 257
 183 602 l 257
184 575 m 257
 184 -2 l 257
 270 -1 l 257
 255 577 l 257
 184 575 l 257
193 64 m 257
 192 -2 l 257
 857 -1 l 257
 857 74 l 257
 193 64 l 257
EndSplineSet
PickledDataWithLists: "(dp0
."
EndChar

StartChar: acutecomb
Encoding: 769 769 28
GlifName: acutecomb
Width: 1024
VWidth: 0
GlyphClass: 2
Flags: W
LayerCount: 2
Fore
SplineSet
530 949 m 257
 451 764 l 257
 504 730 l 257
 583 915 l 257
 530 949 l 257
EndSplineSet
PickledDataWithLists: "(dp0
."
EndChar

StartChar: ampersand
Encoding: 38 38 29
GlifName: ampersand
Width: 1024
VWidth: 0
GlyphClass: 2
Flags: W
LayerCount: 2
Fore
SplineSet
277 1536 m 257
 795 43 l 257
 871 56 l 257
 355 1534 l 257
 277 1536 l 257
820 1467 m 257
 820 1536 l 257
 355 1536 l 257
 355 1467 l 257
 820 1467 l 257
762 1485 m 257
 762 1006 l 257
 820 1006 l 257
 820 1485 l 257
 762 1485 l 257
124 1045 m 257
 124 985 l 257
 820 985 l 257
 820 1045 l 257
 124 1045 l 257
124 1045 m 257
 124 24 l 257
 215 24 l 257
 215 1045 l 257
 124 1045 l 257
124 71 m 257
 124 6 l 257
 933 6 l 257
 933 71 l 257
 124 71 l 257
EndSplineSet
PickledDataWithLists: "(dp0
."
EndChar

StartChar: asciicircum
Encoding: 94 94 30
GlifName: asciicircum
Width: 1024
VWidth: 0
GlyphClass: 2
Flags: W
LayerCount: 2
Fore
SplineSet
530 1027 m 257
 458 1025 l 257
 193 407 l 257
 248 373 l 257
 530 1027 l 257
464 1023 m 257
 787 364 l 257
 870 400 l 257
 537 1030 l 257
 464 1023 l 257
EndSplineSet
PickledDataWithLists: "(dp0
."
EndChar

StartChar: asciitilde
Encoding: 126 126 31
GlifName: asciitilde
Width: 1024
VWidth: 0
GlyphClass: 2
Flags: W
LayerCount: 2
Fore
SplineSet
330 766 m 257
 330 716 l 257
 680 645 l 257
 680 695 l 257
 330 766 l 257
90 710 m 257
 103 652 l 257
 330 716 l 257
 330 766 l 257
 90 710 l 257
680 695 m 257
 680 645 l 257
 861 796 l 257
 848 843 l 257
 680 695 l 257
EndSplineSet
PickledDataWithLists: "(dp0
."
EndChar

StartChar: asterisk
Encoding: 42 42 32
GlifName: asterisk
Width: 1024
VWidth: 0
GlyphClass: 2
Flags: W
LayerCount: 2
Fore
SplineSet
481 1292 m 257
 481 289 l 257
 588 289 l 257
 580 1297 l 257
 481 1292 l 257
135 1153 m 257
 858 424 l 257
 926 496 l 257
 194 1222 l 257
 135 1153 l 257
835 1200 m 257
 87 449 l 257
 142 399 l 257
 887 1134 l 257
 835 1200 l 257
EndSplineSet
PickledDataWithLists: "(dp0
."
EndChar

StartChar: at
Encoding: 64 64 33
GlifName: at
Width: 1200
VWidth: 0
GlyphClass: 2
Flags: W
LayerCount: 2
Fore
SplineSet
219 1024 m 257
 220 956 l 257
 1113 956 l 257
 1117 1024 l 257
 219 1024 l 257
878 598 m 257
 877 -1 l 257
 947 0 l 257
 945 598 l 257
 878 598 l 257
457 602 m 257
 459 551 l 257
 882 551 l 257
 882 601 l 257
 457 602 l 257
454 589 m 257
 454 12 l 257
 508 12 l 257
 508 589 l 257
 454 589 l 257
452 75 m 257
 453 -2 l 257
 946 -1 l 257
 946 76 l 257
 452 75 l 257
166 1024 m 257
 166 -223 l 257
 232 -223 l 257
 232 1024 l 257
 166 1024 l 257
164 -179 m 257
 164 -258 l 257
 1112 -258 l 257
 1112 -179 l 257
 164 -179 l 257
1050 1033 m 257
 1050 0 l 257
 1135 0 l 257
 1135 1033 l 257
 1050 1033 l 257
892 76 m 257
 892 0 l 257
 1082 0 l 257
 1082 76 l 257
 892 76 l 257
EndSplineSet
PickledDataWithLists: "(dp0
."
EndChar

StartChar: b
Encoding: 98 98 34
GlifName: b
Width: 1024
VWidth: 0
GlyphClass: 2
Flags: W
LayerCount: 2
Fore
SplineSet
139 1536 m 257
 139 0 l 257
 199 0 l 257
 199 1536 l 257
 139 1536 l 257
182 1033 m 257
 182 972 l 257
 846 972 l 257
 846 1033 l 257
 182 1033 l 257
833 1033 m 257
 833 0 l 257
 893 0 l 257
 893 1033 l 257
 833 1033 l 257
174 60 m 257
 174 1 l 257
 871 1 l 257
 871 60 l 257
 174 60 l 257
EndSplineSet
EndChar

StartChar: backslash
Encoding: 92 92 35
GlifName: backslash
Width: 1024
VWidth: 0
GlyphClass: 2
Flags: W
LayerCount: 2
Fore
SplineSet
236 1550 m 257
 792 -2 l 257
 870 0 l 257
 319 1551 l 257
 236 1550 l 257
EndSplineSet
PickledDataWithLists: "(dp0
."
EndChar

StartChar: bar
Encoding: 124 124 36
GlifName: bar
Width: 1024
VWidth: 0
GlyphClass: 2
Flags: W
LayerCount: 2
Fore
SplineSet
525 1435 m 257
 525 -90 l 257
 606 -90 l 257
 606 1435 l 257
 525 1435 l 257
EndSplineSet
PickledDataWithLists: "(dp0
."
EndChar

StartChar: braceleft
Encoding: 123 123 37
GlifName: braceleft
Width: 1024
VWidth: 0
GlyphClass: 2
Flags: W
LayerCount: 2
Fore
SplineSet
421 1460 m 257
 421 838 l 257
 495 838 l 257
 495 1460 l 257
 421 1460 l 257
433 424 m 257
 433 -161 l 257
 519 -161 l 257
 519 424 l 257
 433 424 l 257
132 690 m 257
 132 630 l 257
 497 836 l 257
 421 838 l 257
 132 690 l 257
132 690 m 257
 132 630 l 257
 431 423 l 257
 517 425 l 257
 132 690 l 257
441 1463 m 257
 447 1389 l 257
 697 1431 l 257
 701 1460 l 257
 441 1463 l 257
439 -79 m 257
 433 -160 l 257
 708 -163 l 257
 709 -150 l 257
 439 -79 l 257
EndSplineSet
PickledDataWithLists: "(dp0
."
EndChar

StartChar: braceright
Encoding: 125 125 38
GlifName: braceright
Width: 1024
VWidth: 0
GlyphClass: 2
Flags: W
LayerCount: 2
Fore
SplineSet
437 1544 m 257
 436 838 l 257
 377 838 l 257
 378 1544 l 257
 437 1544 l 257
423 424 m 257
 423 -286 l 257
 363 -286 l 257
 363 424 l 257
 423 424 l 257
710 690 m 257
 710 630 l 257
 377 841 l 257
 432 838 l 257
 710 690 l 257
710 690 m 257
 710 630 l 257
 423 424 l 257
 363 424 l 257
 710 690 l 257
438 1603 m 257
 435 1509 l 257
 167 1574 l 257
 163 1603 l 257
 438 1603 l 257
411 -200 m 257
 408 -284 l 257
 133 -287 l 257
 132 -274 l 257
 411 -200 l 257
EndSplineSet
PickledDataWithLists: "(dp0
."
EndChar

StartChar: bracketleft
Encoding: 91 91 39
GlifName: bracketleft
Width: 1024
VWidth: 0
GlyphClass: 2
Flags: W
LayerCount: 2
Fore
SplineSet
162 1542 m 257
 164 -242 l 257
 221 -242 l 257
 219 1542 l 257
 162 1542 l 257
216 1543 m 257
 216 1481 l 257
 425 1481 l 257
 425 1543 l 257
 216 1543 l 257
198 -168 m 257
 198 -242 l 257
 430 -242 l 257
 430 -168 l 257
 198 -168 l 257
EndSplineSet
PickledDataWithLists: "(dp0
."
EndChar

StartChar: bracketright
Encoding: 93 93 40
GlifName: bracketright
Width: 1024
VWidth: 0
GlyphClass: 2
Flags: W
LayerCount: 2
Fore
SplineSet
428 1542 m 257
 430 -242 l 257
 493 -242 l 257
 490 1542 l 257
 428 1542 l 257
216 1543 m 257
 216 1478 l 257
 444 1478 l 257
 444 1543 l 257
 216 1543 l 257
216 -165 m 257
 216 -242 l 257
 455 -242 l 257
 455 -165 l 257
 216 -165 l 257
EndSplineSet
PickledDataWithLists: "(dp0
."
EndChar

StartChar: c
Encoding: 99 99 41
GlifName: c
Width: 1024
VWidth: 0
GlyphClass: 2
Flags: W
LayerCount: 2
Fore
SplineSet
201 1026 m 257
 203 967 l 257
 895 967 l 257
 898 1027 l 257
 201 1026 l 257
204 984 m 257
 204 -1 l 257
 265 0 l 257
 264 984 l 257
 204 984 l 257
252 59 m 257
 252 1 l 257
 892 0 l 257
 892 60 l 257
 252 59 l 257
EndSplineSet
EndChar

StartChar: colon
Encoding: 58 58 42
GlifName: colon
Width: 1024
VWidth: 0
GlyphClass: 2
Flags: W
LayerCount: 2
Fore
SplineSet
508 164 m 257
 508 7 l 257
 645 7 l 257
 645 164 l 257
 508 164 l 257
508 553 m 257
 508 396 l 257
 645 396 l 257
 645 553 l 257
 508 553 l 257
EndSplineSet
PickledDataWithLists: "(dp0
."
EndChar

StartChar: comma
Encoding: 44 44 43
GlifName: comma
Width: 1024
VWidth: 0
GlyphClass: 2
Flags: W
LayerCount: 2
Fore
SplineSet
508 165 m 257
 508 8 l 257
 645 8 l 257
 645 165 l 257
 508 165 l 257
592 135 m 257
 551 -99 l 257
 600 -148 l 257
 643 26 l 257
 592 135 l 257
EndSplineSet
PickledDataWithLists: "(dp0
."
EndChar

StartChar: d
Encoding: 100 100 44
GlifName: d
Width: 1024
VWidth: 0
GlyphClass: 2
Flags: W
LayerCount: 2
Fore
SplineSet
866 1527 m 257
 866 -1 l 257
 926 -1 l 257
 926 1527 l 257
 866 1527 l 257
210 1026 m 257
 215 966 l 257
 899 966 l 257
 899 1026 l 257
 210 1026 l 257
165 1024 m 257
 165 0 l 257
 226 1 l 257
 226 1024 l 257
 165 1024 l 257
206 59 m 257
 206 1 l 257
 878 -4 l 257
 878 59 l 257
 206 59 l 257
EndSplineSet
EndChar

StartChar: uni0921
Encoding: 2337 2337 45
GlifName: dda-deva
Width: 1024
VWidth: 0
Flags: W
LayerCount: 2
Fore
SplineSet
2 1554 m 257
 2 1494 l 257
 1029 1494 l 257
 1029 1554 l 257
 2 1554 l 257
384 1546 m 257
 384 1015 l 257
 444 1015 l 257
 444 1546 l 257
 384 1546 l 257
384 1025 m 257
 384 965 l 257
 927 965 l 257
 927 1025 l 257
 384 1025 l 257
893 1025 m 257
 893 5 l 257
 953 5 l 257
 953 1025 l 257
 893 1025 l 257
62 62 m 257
 62 0 l 257
 953 0 l 257
 953 62 l 257
 62 62 l 257
62 331 m 257
 62 5 l 257
 122 5 l 257
 122 331 l 257
 62 331 l 257
EndSplineSet
PickledDataWithLists: "(dp0
Vxyz.fontra.layer-names
p1
(dp2
VSamaano-Thin/public.default
p3
Vdefault
p4
ss."
EndChar

StartChar: uni0922
Encoding: 2338 2338 46
GlifName: ddha-deva
Width: 1024
VWidth: 0
Flags: W
LayerCount: 2
Fore
SplineSet
0 1549 m 257
 0 1488 l 257
 1024 1488 l 257
 1024 1549 l 257
 0 1549 l 257
687 1528 m 257
 687 988 l 257
 769 988 l 257
 769 1528 l 257
 687 1528 l 257
769 1023 m 257
 120 1023 l 257
 120 962 l 257
 769 962 l 257
 769 1023 l 257
99 1024 m 257
 99 5 l 257
 159 5 l 257
 159 1024 l 257
 99 1024 l 257
99 60 m 257
 99 0 l 257
 812 0 l 257
 812 60 l 257
 99 60 l 257
754 544 m 257
 754 -2 l 257
 814 -2 l 257
 814 544 l 257
 754 544 l 257
684 547 m 257
 684 487 l 257
 812 487 l 257
 812 547 l 257
 684 547 l 257
EndSplineSet
PickledDataWithLists: "(dp0
Vxyz.fontra.layer-names
p1
(dp2
VSamaano-Thin/public.default
p3
Vdefault
p4
ss."
EndChar

StartChar: dollar
Encoding: 36 36 47
GlifName: dollar
Width: 1024
VWidth: 0
GlyphClass: 2
Flags: W
LayerCount: 2
Fore
SplineSet
146 1539 m 257
 146 1457 l 257
 744 1457 l 257
 744 1539 l 257
 146 1539 l 257
146 1542 m 257
 146 1028 l 257
 230 1028 l 257
 230 1542 l 257
 146 1542 l 257
174 69 m 257
 174 0 l 257
 882 0 l 257
 882 69 l 257
 174 69 l 257
838 1 m 257
 918 1 l 257
 918 355 l 257
 838 355 l 257
 838 1 l 257
146 1028 m 257
 837 355 l 257
 918 355 l 257
 230 1028 l 257
 146 1028 l 257
441 1636 m 257
 441 -215 l 257
 511 -215 l 257
 511 1636 l 257
 441 1636 l 257
EndSplineSet
PickledDataWithLists: "(dp0
."
EndChar

StartChar: e
Encoding: 101 101 48
GlifName: e
Width: 1024
VWidth: 0
GlyphClass: 2
Flags: W
LayerCount: 2
Fore
SplineSet
218 1024 m 257
 218 967 l 257
 858 968 l 257
 857 1025 l 257
 218 1024 l 257
166 1024 m 257
 165 -1 l 257
 231 0 l 257
 224 1024 l 257
 166 1024 l 257
208 60 m 257
 208 1 l 257
 853 0 l 257
 853 61 l 257
 208 60 l 257
187 506 m 257
 195 445 l 257
 825 446 l 257
 824 506 l 257
 187 506 l 257
799 995 m 257
 798 445 l 257
 860 445 l 257
 858 993 l 257
 799 995 l 257
EndSplineSet
EndChar

StartChar: eight
Encoding: 56 56 49
GlifName: eight
Width: 1200
VWidth: 0
GlyphClass: 2
Flags: W
LayerCount: 2
Fore
SplineSet
98 0 m 257
 98 860 l 257
 194 860 l 257
 194 0 l 257
 98 0 l 257
98 935 m 257
 98 1640 l 257
 200 1640 l 257
 200 935 l 257
 98 935 l 257
210 0 m 257
 204 105 l 257
 964 90 l 257
 960 0 l 257
 210 0 l 257
230 1520 m 257
 230 1630 l 257
 970 1640 l 257
 970 1520 l 257
 230 1520 l 257
240 810 m 257
 240 935 l 257
 960 935 l 257
 960 810 l 257
 240 810 l 257
994 0 m 257
 994 845 l 257
 1102 845 l 257
 1102 0 l 257
 994 0 l 257
1010 935 m 257
 1010 1640 l 257
 1102 1640 l 257
 1102 935 l 257
 1010 935 l 257
EndSplineSet
EndChar

StartChar: equal
Encoding: 61 61 50
GlifName: equal
Width: 1024
VWidth: 0
GlyphClass: 2
Flags: W
LayerCount: 2
Fore
SplineSet
130 824 m 257
 130 724 l 257
 947 724 l 257
 947 824 l 257
 130 824 l 257
130 540 m 257
 130 450 l 257
 947 450 l 257
 947 540 l 257
 130 540 l 257
EndSplineSet
PickledDataWithLists: "(dp0
."
EndChar

StartChar: exclam
Encoding: 33 33 51
GlifName: exclam
Width: 1200
VWidth: 0
GlyphClass: 2
Flags: W
LayerCount: 2
Fore
SplineSet
571 9 m 257
 638 9 l 257
 638 107 l 257
 571 107 l 257
 571 9 l 257
569 344 m 257
 641 344 l 257
 641 1362 l 257
 569 1362 l 257
 569 344 l 257
EndSplineSet
EndChar

StartChar: f
Encoding: 102 102 52
GlifName: f
Width: 1024
VWidth: 0
GlyphClass: 2
Flags: W
LayerCount: 2
Fore
SplineSet
483 1023 m 257
 483 -409 l 257
 541 -410 l 257
 543 1024 l 257
 483 1023 l 257
484 1023 m 257
 483 963 l 257
 883 963 l 257
 882 1024 l 257
 484 1023 l 257
273 462 m 257
 273 402 l 257
 752 402 l 257
 752 462 l 257
 273 462 l 257
EndSplineSet
EndChar

StartChar: five
Encoding: 53 53 53
GlifName: five
Width: 1200
VWidth: 0
GlyphClass: 2
Flags: W
LayerCount: 2
Fore
SplineSet
98 935 m 257
 98 1640 l 257
 200 1640 l 257
 200 935 l 257
 98 935 l 257
204 105 m 257
 964 90 l 257
 960 0 l 257
 210 0 l 257
 204 105 l 257
230 1520 m 257
 230 1630 l 257
 970 1640 l 257
 970 1520 l 257
 230 1520 l 257
240 810 m 257
 240 935 l 257
 960 935 l 257
 960 810 l 257
 240 810 l 257
994 0 m 257
 994 845 l 257
 1102 845 l 257
 1102 0 l 257
 994 0 l 257
EndSplineSet
EndChar

StartChar: four
Encoding: 52 52 54
GlifName: four
Width: 1200
VWidth: 0
GlyphClass: 2
Flags: W
LayerCount: 2
Fore
SplineSet
98 935 m 257
 98 1640 l 257
 200 1640 l 257
 200 935 l 257
 98 935 l 257
240 810 m 257
 240 935 l 257
 960 935 l 257
 960 810 l 257
 240 810 l 257
994 0 m 257
 994 845 l 257
 1102 845 l 257
 1102 0 l 257
 994 0 l 257
1010 935 m 257
 1010 1640 l 257
 1102 1640 l 257
 1102 935 l 257
 1010 935 l 257
EndSplineSet
EndChar

StartChar: g
Encoding: 103 103 55
GlifName: g
Width: 1024
VWidth: 0
GlyphClass: 2
Flags: W
LayerCount: 2
Fore
SplineSet
297 1023 m 257
 297 0 l 257
 357 0 l 257
 357 1023 l 257
 297 1023 l 257
337 1021 m 257
 337 962 l 257
 853 962 l 257
 853 1021 l 257
 337 1021 l 257
815 1024 m 257
 815 -411 l 257
 875 -411 l 257
 875 1024 l 257
 815 1024 l 257
360 58 m 257
 360 -1 l 257
 817 -1 l 257
 817 58 l 257
 360 58 l 257
337 -354 m 257
 337 -413 l 257
 826 -413 l 257
 826 -354 l 257
 337 -354 l 257
EndSplineSet
EndChar

StartChar: grave
Encoding: 96 96 56
GlifName: grave
Width: 1024
VWidth: 0
GlyphClass: 2
Flags: W
LayerCount: 2
Fore
SplineSet
320 1286 m 257
 405 1057 l 257
 493 1112 l 257
 401 1340 l 257
 320 1286 l 257
EndSplineSet
PickledDataWithLists: "(dp0
."
EndChar

StartChar: gravecomb
Encoding: 768 768 57
GlifName: gravecomb
Width: 1024
VWidth: 0
GlyphClass: 2
Flags: W
LayerCount: 2
Fore
SplineSet
385 877 m 257
 510 673 l 257
 570 727 l 257
 445 932 l 257
 385 877 l 257
EndSplineSet
PickledDataWithLists: "(dp0
."
EndChar

StartChar: greater
Encoding: 62 62 58
GlifName: greater
Width: 1024
VWidth: 0
GlyphClass: 2
Flags: W
LayerCount: 2
Fore
SplineSet
949 632 m 257
 133 1013 l 257
 132 952 l 257
 949 569 l 257
 949 632 l 257
949 632 m 257
 131 186 l 257
 135 122 l 257
 949 569 l 257
 949 632 l 257
EndSplineSet
PickledDataWithLists: "(dp0
."
EndChar

StartChar: h
Encoding: 104 104 59
GlifName: h
Width: 1024
VWidth: 0
GlyphClass: 2
Flags: W
LayerCount: 2
Fore
SplineSet
147 1525 m 257
 147 6 l 257
 206 6 l 257
 206 1525 l 257
 147 1525 l 257
187 1028 m 257
 187 968 l 257
 776 968 l 257
 776 1028 l 257
 187 1028 l 257
764 1028 m 257
 764 1 l 257
 823 1 l 257
 823 1028 l 257
 764 1028 l 257
EndSplineSet
EndChar

StartChar: hyphen
Encoding: 45 45 60
GlifName: hyphen
Width: 1024
VWidth: 0
GlyphClass: 2
Flags: W
LayerCount: 2
Fore
SplineSet
99 793 m 257
 99 695 l 257
 925 695 l 257
 925 793 l 257
 99 793 l 257
EndSplineSet
PickledDataWithLists: "(dp0
."
EndChar

StartChar: i
Encoding: 105 105 61
GlifName: i
Width: 1024
VWidth: 0
GlyphClass: 2
Flags: W
LayerCount: 2
Fore
SplineSet
546 1022 m 257
 546 52 l 257
 606 52 l 257
 606 1022 l 257
 546 1022 l 257
177 60 m 257
 177 1 l 257
 919 1 l 257
 919 60 l 257
 177 60 l 257
360 1292 m 257
 360 1174 l 257
 473 1174 l 257
 473 1292 l 257
 360 1292 l 257
227 1022 m 257
 227 962 l 257
 563 962 l 257
 563 1022 l 257
 227 1022 l 257
EndSplineSet
EndChar

StartChar: j
Encoding: 106 106 62
GlifName: j
Width: 1024
VWidth: 0
GlyphClass: 2
Flags: W
LayerCount: 2
Fore
SplineSet
744 1024 m 257
 744 -411 l 257
 803 -411 l 257
 803 1024 l 257
 744 1024 l 257
174 -348 m 257
 174 -409 l 257
 764 -409 l 257
 764 -348 l 257
 174 -348 l 257
175 -6 m 257
 175 -378 l 257
 235 -378 l 257
 235 -6 l 257
 175 -6 l 257
743 1201 m 257
 743 1142 l 257
 802 1142 l 257
 802 1201 l 257
 743 1201 l 257
EndSplineSet
EndChar

StartChar: k
Encoding: 107 107 63
GlifName: k
Width: 1024
VWidth: 0
GlyphClass: 2
Flags: W
LayerCount: 2
Fore
SplineSet
118 1535 m 257
 118 5 l 257
 178 5 l 257
 178 1535 l 257
 118 1535 l 257
167 421 m 257
 165 352 l 257
 824 1024 l 257
 764 1024 l 257
 167 421 l 257
414 612 m 257
 372 569 l 257
 929 0 l 257
 990 0 l 257
 414 612 l 257
EndSplineSet
EndChar

StartChar: l
Encoding: 108 108 64
GlifName: l
Width: 1024
VWidth: 0
GlyphClass: 2
Flags: W
LayerCount: 2
Fore
SplineSet
195 72 m 257
 195 1 l 257
 829 1 l 257
 829 72 l 257
 195 72 l 257
482 1553 m 257
 482 57 l 257
 542 57 l 257
 542 1553 l 257
 482 1553 l 257
256 1553 m 257
 256 1494 l 257
 491 1494 l 257
 491 1553 l 257
 256 1553 l 257
EndSplineSet
EndChar

StartChar: less
Encoding: 60 60 65
GlifName: less
Width: 1024
VWidth: 0
GlyphClass: 2
Flags: W
LayerCount: 2
Fore
SplineSet
134 652 m 257
 134 569 l 257
 951 946 l 257
 952 1013 l 257
 134 652 l 257
134 652 m 257
 134 569 l 257
 950 122 l 257
 946 199 l 257
 134 652 l 257
EndSplineSet
PickledDataWithLists: "(dp0
."
EndChar

StartChar: m
Encoding: 109 109 66
GlifName: m
Width: 1024
VWidth: 0
GlyphClass: 2
Flags: W
LayerCount: 2
Fore
SplineSet
110 993 m 257
 110 1 l 257
 170 1 l 257
 170 993 l 257
 110 993 l 257
494 972 m 257
 494 -2 l 257
 554 -2 l 257
 554 972 l 257
 494 972 l 257
879 976 m 257
 879 1 l 257
 940 1 l 257
 940 976 l 257
 879 976 l 257
35 1025 m 257
 36 965 l 257
 940 966 l 257
 940 1024 l 257
 35 1025 l 257
EndSplineSet
EndChar

StartChar: n
Encoding: 110 110 67
GlifName: n
Width: 1024
VWidth: 0
GlyphClass: 2
Flags: W
LayerCount: 2
Fore
SplineSet
302 990 m 257
 302 -2 l 257
 363 -2 l 257
 363 990 l 257
 302 990 l 257
842 976 m 257
 842 1 l 257
 902 1 l 257
 902 976 l 257
 842 976 l 257
122 1025 m 257
 123 965 l 257
 901 967 l 257
 900 1027 l 257
 122 1025 l 257
EndSplineSet
EndChar

StartChar: nine
Encoding: 57 57 68
GlifName: nine
Width: 1200
VWidth: 0
GlyphClass: 2
Flags: W
LayerCount: 2
Fore
SplineSet
98 935 m 257
 98 1640 l 257
 200 1640 l 257
 200 935 l 257
 98 935 l 257
204 105 m 257
 964 90 l 257
 960 0 l 257
 210 0 l 257
 204 105 l 257
230 1520 m 257
 230 1630 l 257
 970 1640 l 257
 970 1520 l 257
 230 1520 l 257
240 810 m 257
 240 935 l 257
 960 935 l 257
 960 810 l 257
 240 810 l 257
994 0 m 257
 994 845 l 257
 1102 845 l 257
 1102 0 l 257
 994 0 l 257
1010 935 m 257
 1010 1640 l 257
 1102 1640 l 257
 1102 935 l 257
 1010 935 l 257
EndSplineSet
EndChar

StartChar: uni0923
Encoding: 2339 2339 69
GlifName: nna-deva
Width: 1024
VWidth: 0
Flags: W
LayerCount: 2
Fore
SplineSet
-1 1548 m 257
 -1 1488 l 257
 1029 1488 l 257
 1029 1548 l 257
 -1 1548 l 257
861 1530 m 257
 861 -1 l 257
 921 -1 l 257
 921 1530 l 257
 861 1530 l 257
109 1543 m 257
 109 855 l 257
 169 855 l 257
 169 1543 l 257
 109 1543 l 257
605 1528 m 257
 605 844 l 257
 665 844 l 257
 665 1528 l 257
 605 1528 l 257
109 885 m 257
 109 825 l 257
 665 825 l 257
 665 885 l 257
 109 885 l 257
EndSplineSet
PickledDataWithLists: "(dp0
Vxyz.fontra.layer-names
p1
(dp2
VSamaano-Thin/public.default
p3
Vdefault
p4
ss."
EndChar

StartChar: numbersign
Encoding: 35 35 70
GlifName: numbersign
Width: 1024
VWidth: 0
GlyphClass: 2
Flags: W
LayerCount: 2
Fore
SplineSet
223 1184 m 257
 223 99 l 257
 282 99 l 257
 282 1184 l 257
 223 1184 l 257
718 1192 m 257
 718 95 l 257
 789 95 l 257
 789 1192 l 257
 718 1192 l 257
99 995 m 257
 99 937 l 257
 900 937 l 257
 900 995 l 257
 99 995 l 257
103 493 m 257
 103 417 l 257
 913 417 l 257
 913 493 l 257
 103 493 l 257
EndSplineSet
PickledDataWithLists: "(dp0
."
EndChar

StartChar: o
Encoding: 111 111 71
GlifName: o
Width: 1024
VWidth: 0
GlyphClass: 2
Flags: W
LayerCount: 2
Fore
SplineSet
103 1024 m 257
 102 0 l 257
 163 0 l 257
 162 1022 l 257
 103 1024 l 257
860 1024 m 257
 860 0 l 257
 921 0 l 257
 921 1024 l 257
 860 1024 l 257
164 1026 m 257
 164 967 l 257
 864 967 l 257
 865 1027 l 257
 164 1026 l 257
149 58 m 257
 150 0 l 257
 872 0 l 257
 868 62 l 257
 149 58 l 257
EndSplineSet
EndChar

StartChar: one
Encoding: 49 49 72
GlifName: one
Width: 1200
VWidth: 0
GlyphClass: 2
Flags: W
LayerCount: 2
Fore
SplineSet
546 0 m 257
 546 845 l 257
 654 845 l 257
 654 0 l 257
 546 0 l 257
562 935 m 257
 562 1640 l 257
 654 1640 l 257
 654 935 l 257
 562 935 l 257
EndSplineSet
EndChar

StartChar: p
Encoding: 112 112 73
GlifName: p
Width: 1024
VWidth: 0
GlyphClass: 2
Flags: W
LayerCount: 2
Fore
SplineSet
173 1181 m 257
 173 -406 l 257
 233 -406 l 257
 233 1181 l 257
 173 1181 l 257
217 1024 m 257
 217 963 l 257
 805 964 l 257
 803 1024 l 257
 217 1024 l 257
219 61 m 257
 222 1 l 257
 818 1 l 257
 815 61 l 257
 219 61 l 257
755 1023 m 257
 755 -1 l 257
 816 -1 l 257
 813 1024 l 257
 755 1023 l 257
EndSplineSet
EndChar

StartChar: parenleft
Encoding: 40 40 74
GlifName: parenleft
Width: 1024
VWidth: 0
GlyphClass: 2
Flags: W
LayerCount: 2
Fore
SplineSet
409 1026 m 257
 409 179 l 257
 537 179 l 257
 537 1026 l 257
 409 1026 l 257
773 1636 m 257
 409 1026 l 257
 537 1026 l 257
 800 1633 l 257
 773 1636 l 257
409 179 m 257
 746 -307 l 257
 775 -309 l 257
 537 179 l 257
 409 179 l 257
EndSplineSet
PickledDataWithLists: "(dp0
."
EndChar

StartChar: parenright
Encoding: 41 41 75
GlifName: parenright
Width: 1024
VWidth: 0
GlyphClass: 2
Flags: W
LayerCount: 2
Fore
SplineSet
409 1026 m 257
 537 1026 l 257
 537 179 l 257
 409 179 l 257
 409 1026 l 257
204 1636 m 257
 242 1635 l 257
 537 1026 l 257
 409 1026 l 257
 204 1636 l 257
409 179 m 257
 537 179 l 257
 233 -309 l 257
 204 -307 l 257
 409 179 l 257
EndSplineSet
PickledDataWithLists: "(dp0
."
EndChar

StartChar: percent
Encoding: 37 37 76
GlifName: percent
Width: 1024
VWidth: 0
GlyphClass: 2
Flags: W
LayerCount: 2
Fore
SplineSet
131 444 m 257
 160 417 l 257
 907 775 l 257
 888 801 l 257
 131 444 l 257
237 1148 m 257
 237 803 l 257
 268 803 l 257
 268 1148 l 257
 237 1148 l 257
237 1152 m 257
 237 1126 l 257
 584 1126 l 257
 584 1152 l 257
 237 1152 l 257
237 826 m 257
 237 789 l 257
 581 789 l 257
 581 826 l 257
 237 826 l 257
548 1152 m 257
 548 791 l 257
 584 791 l 257
 584 1152 l 257
 548 1152 l 257
564 436 m 257
 564 94 l 257
 607 94 l 257
 607 436 l 257
 564 436 l 257
564 440 m 257
 564 397 l 257
 911 397 l 257
 911 440 l 257
 564 440 l 257
564 109 m 257
 564 77 l 257
 908 77 l 257
 908 109 l 257
 564 109 l 257
877 440 m 257
 877 79 l 257
 911 79 l 257
 911 440 l 257
 877 440 l 257
EndSplineSet
PickledDataWithLists: "(dp0
."
EndChar

StartChar: period
Encoding: 46 46 77
GlifName: period
Width: 1024
VWidth: 0
GlyphClass: 2
Flags: W
LayerCount: 2
Fore
SplineSet
441 113 m 257
 441 -1 l 257
 584 -1 l 257
 584 113 l 257
 441 113 l 257
EndSplineSet
PickledDataWithLists: "(dp0
."
EndChar

StartChar: plus
Encoding: 43 43 78
GlifName: plus
Width: 1024
VWidth: 0
GlyphClass: 2
Flags: W
LayerCount: 2
Fore
SplineSet
434 1221 m 257
 434 165 l 257
 544 165 l 257
 544 1221 l 257
 434 1221 l 257
61 796 m 257
 61 693 l 257
 963 693 l 257
 963 796 l 257
 61 796 l 257
EndSplineSet
PickledDataWithLists: "(dp0
."
EndChar

StartChar: q
Encoding: 113 113 79
GlifName: q
Width: 1024
VWidth: 0
GlyphClass: 2
Flags: W
LayerCount: 2
Fore
SplineSet
788 1191 m 257
 788 -411 l 257
 846 -410 l 257
 848 1188 l 257
 788 1191 l 257
184 1025 m 257
 184 961 l 257
 833 961 l 257
 833 1025 l 257
 184 1025 l 257
190 57 m 257
 190 0 l 257
 806 0 l 257
 806 57 l 257
 190 57 l 257
176 1025 m 257
 176 0 l 257
 235 0 l 257
 235 1025 l 257
 176 1025 l 257
792 -344 m 257
 792 -410 l 257
 925 -410 l 257
 925 -344 l 257
 792 -344 l 257
EndSplineSet
EndChar

StartChar: question
Encoding: 63 63 80
GlifName: question
Width: 1024
VWidth: 0
GlyphClass: 2
Flags: W
LayerCount: 2
Fore
SplineSet
368 134 m 257
 368 0 l 257
 480 0 l 257
 479 134 l 257
 368 134 l 257
191 1519 m 257
 191 1426 l 257
 828 1426 l 257
 828 1519 l 257
 191 1519 l 257
746 1514 m 257
 746 966 l 257
 832 966 l 257
 832 1514 l 257
 746 1514 l 257
368 1015 m 257
 368 948 l 257
 832 948 l 257
 832 1015 l 257
 368 1015 l 257
368 1011 m 257
 368 392 l 257
 464 392 l 257
 464 1011 l 257
 368 1011 l 257
EndSplineSet
PickledDataWithLists: "(dp0
."
EndChar

StartChar: quotedbl
Encoding: 34 34 81
GlifName: quotedbl
Width: 1200
VWidth: 0
GlyphClass: 2
Flags: W
LayerCount: 2
Fore
SplineSet
359 1326 m 257
 424 1326 l 257
 424 1574 l 257
 359 1574 l 257
 359 1326 l 257
762 1326 m 257
 822 1326 l 257
 822 1574 l 257
 762 1574 l 257
 762 1326 l 257
EndSplineSet
PickledDataWithLists: "(dp0
."
EndChar

StartChar: quotesingle
Encoding: 39 39 82
GlifName: quotesingle
Width: 1024
VWidth: 0
GlyphClass: 2
Flags: W
LayerCount: 2
Fore
SplineSet
480 1496 m 257
 480 1317 l 257
 543 1317 l 257
 543 1496 l 257
 480 1496 l 257
EndSplineSet
PickledDataWithLists: "(dp0
."
EndChar

StartChar: r
Encoding: 114 114 83
GlifName: r
Width: 1024
VWidth: 0
GlyphClass: 2
Flags: W
LayerCount: 2
Fore
SplineSet
165 1022 m 257
 165 961 l 257
 898 961 l 257
 898 1022 l 257
 165 1022 l 257
380 989 m 257
 380 -2 l 257
 439 -2 l 257
 439 989 l 257
 380 989 l 257
838 976 m 257
 838 650 l 257
 898 650 l 257
 898 976 l 257
 838 976 l 257
EndSplineSet
EndChar

StartChar: s
Encoding: 115 115 84
GlifName: s
Width: 1024
VWidth: 0
GlyphClass: 2
Flags: W
LayerCount: 2
Fore
SplineSet
186 1024 m 257
 187 964 l 257
 796 964 l 257
 795 1024 l 257
 186 1024 l 257
186 1024 m 257
 186 736 l 257
 247 736 l 257
 247 1024 l 257
 186 1024 l 257
187 59 m 257
 186 0 l 257
 793 0 l 257
 792 59 l 257
 187 59 l 257
730 299 m 257
 730 12 l 257
 793 12 l 257
 793 299 l 257
 730 299 l 257
186 736 m 257
 730 299 l 257
 793 299 l 257
 247 736 l 257
 186 736 l 257
EndSplineSet
EndChar

StartChar: semicolon
Encoding: 59 59 85
GlifName: semicolon
Width: 1024
VWidth: 0
GlyphClass: 2
Flags: W
LayerCount: 2
Fore
SplineSet
508 164 m 257
 508 7 l 257
 645 7 l 257
 645 164 l 257
 508 164 l 257
592 135 m 257
 551 -99 l 257
 600 -148 l 257
 643 26 l 257
 592 135 l 257
508 503 m 257
 508 346 l 257
 645 346 l 257
 645 503 l 257
 508 503 l 257
EndSplineSet
PickledDataWithLists: "(dp0
."
EndChar

StartChar: seven
Encoding: 55 55 86
GlifName: seven
Width: 1200
VWidth: 0
GlyphClass: 2
Flags: W
LayerCount: 2
Fore
SplineSet
164 1520 m 257
 164 1630 l 257
 904 1640 l 257
 904 1520 l 257
 164 1520 l 257
951 984 m 257
 940 1635 l 257
 1039 1635 l 257
 1047 980 l 257
 951 984 l 257
966 30 m 257
 951 933 l 257
 1040 943 l 257
 1062 30 l 257
 966 30 l 257
EndSplineSet
EndChar

StartChar: six
Encoding: 54 54 87
GlifName: six
Width: 1200
VWidth: 0
GlyphClass: 2
Flags: W
LayerCount: 2
Fore
SplineSet
98 0 m 257
 98 860 l 257
 194 860 l 257
 194 0 l 257
 98 0 l 257
98 935 m 257
 98 1640 l 257
 200 1640 l 257
 200 935 l 257
 98 935 l 257
204 105 m 257
 964 90 l 257
 960 0 l 257
 210 0 l 257
 204 105 l 257
230 1520 m 257
 230 1630 l 257
 970 1640 l 257
 970 1520 l 257
 230 1520 l 257
240 810 m 257
 240 935 l 257
 960 935 l 257
 960 810 l 257
 240 810 l 257
994 0 m 257
 994 845 l 257
 1102 845 l 257
 1102 0 l 257
 994 0 l 257
EndSplineSet
EndChar

StartChar: slash
Encoding: 47 47 88
GlifName: slash
Width: 1024
VWidth: 0
GlyphClass: 2
Flags: W
LayerCount: 2
Fore
SplineSet
757 1474 m 257
 170 4 l 257
 273 10 l 257
 860 1480 l 257
 757 1474 l 257
EndSplineSet
PickledDataWithLists: "(dp0
."
EndChar

StartChar: t
Encoding: 116 116 90
GlifName: t
Width: 1024
VWidth: 0
GlyphClass: 2
Flags: W
LayerCount: 2
Fore
SplineSet
482 1529 m 257
 482 0 l 257
 543 0 l 257
 543 1529 l 257
 482 1529 l 257
495 60 m 257
 495 0 l 257
 886 0 l 257
 886 60 l 257
 495 60 l 257
175 1025 m 257
 176 965 l 257
 850 965 l 257
 849 1025 l 257
 175 1025 l 257
EndSplineSet
EndChar

StartChar: three
Encoding: 51 51 91
GlifName: three
Width: 1200
VWidth: 0
GlyphClass: 2
Flags: W
LayerCount: 2
Fore
SplineSet
152 105 m 257
 912 90 l 257
 906 0 l 257
 156 0 l 257
 152 105 l 257
176 1520 m 257
 176 1630 l 257
 916 1640 l 257
 916 1520 l 257
 176 1520 l 257
186 810 m 257
 186 935 l 257
 906 935 l 257
 906 810 l 257
 186 810 l 257
942 0 m 257
 942 845 l 257
 1048 845 l 257
 1048 0 l 257
 942 0 l 257
956 935 m 257
 956 1640 l 257
 1048 1640 l 257
 1048 935 l 257
 956 935 l 257
EndSplineSet
EndChar

StartChar: uni091F
Encoding: 2335 2335 92
GlifName: tta-deva
Width: 1024
VWidth: 0
Flags: W
LayerCount: 2
Fore
SplineSet
10 1554 m 257
 10 1494 l 257
 1024 1494 l 257
 1024 1554 l 257
 10 1554 l 257
709 1528 m 257
 709 988 l 257
 769 988 l 257
 769 1528 l 257
 709 1528 l 257
769 1023 m 257
 120 1023 l 257
 120 963 l 257
 769 963 l 257
 769 1023 l 257
99 1024 m 257
 99 5 l 257
 159 5 l 257
 159 1024 l 257
 99 1024 l 257
99 60 m 257
 99 0 l 257
 812 0 l 257
 812 60 l 257
 99 60 l 257
EndSplineSet
PickledDataWithLists: "(dp0
Vxyz.fontra.layer-names
p1
(dp2
VSamaano-Thin/public.default
p3
Vdefault
p4
ss."
EndChar

StartChar: uni0920
Encoding: 2336 2336 93
GlifName: ttha-deva
Width: 1024
VWidth: 0
Flags: W
LayerCount: 2
Fore
SplineSet
0 1551 m 257
 0 1490 l 257
 1026 1490 l 257
 1026 1551 l 257
 0 1551 l 257
598 1510 m 257
 598 1021 l 257
 657 1021 l 257
 657 1510 l 257
 598 1510 l 257
85 1024 m 257
 85 963 l 257
 963 963 l 257
 963 1024 l 257
 85 1024 l 257
72 1024 m 257
 72 13 l 257
 134 13 l 257
 134 1024 l 257
 72 1024 l 257
892 1001 m 257
 892 -2 l 257
 963 -2 l 257
 963 1001 l 257
 892 1001 l 257
73 58 m 257
 73 -3 l 257
 943 -3 l 257
 943 58 l 257
 73 58 l 257
EndSplineSet
PickledDataWithLists: "(dp0
Vxyz.fontra.layer-names
p1
(dp2
VSamaano-Thin/public.default
p3
Vdefault
p4
ss."
EndChar

StartChar: two
Encoding: 50 50 94
GlifName: two
Width: 1200
VWidth: 0
GlyphClass: 2
Flags: W
LayerCount: 2
Fore
SplineSet
98 111 m 257
 98 795 l 257
 194 795 l 257
 194 111 l 257
 98 111 l 257
204 105 m 257
 964 90 l 257
 960 0 l 257
 210 0 l 257
 204 105 l 257
230 1520 m 257
 230 1630 l 257
 970 1640 l 257
 970 1520 l 257
 230 1520 l 257
240 810 m 257
 240 935 l 257
 960 935 l 257
 960 810 l 257
 240 810 l 257
1010 935 m 257
 1010 1640 l 257
 1102 1640 l 257
 1102 935 l 257
 1010 935 l 257
EndSplineSet
EndChar

StartChar: u
Encoding: 117 117 95
GlifName: u
Width: 1024
VWidth: 0
GlyphClass: 2
Flags: W
LayerCount: 2
Fore
SplineSet
197 1034 m 257
 197 0 l 257
 256 0 l 257
 257 1034 l 257
 197 1034 l 257
771 1033 m 257
 771 4 l 257
 830 4 l 257
 830 1033 l 257
 771 1033 l 257
244 61 m 257
 245 0 l 257
 946 0 l 257
 946 61 l 257
 244 61 l 257
EndSplineSet
EndChar

StartChar: underscore
Encoding: 95 95 96
GlifName: underscore
Width: 1024
VWidth: 0
GlyphClass: 2
Flags: W
LayerCount: 2
Fore
SplineSet
0 0 m 257
 0 -40 l 257
 1024 -40 l 257
 1024 0 l 257
 0 0 l 257
EndSplineSet
EndChar

StartChar: uni0900
Encoding: 2304 2304 97
GlifName: uni0900
Width: 1024
VWidth: 0
GlyphClass: 2
Flags: W
LayerCount: 2
Fore
SplineSet
179.65 2124 m 257
 179.65 1639 l 257
 239.35 1639 l 257
 239.35 2124 l 257
 179.65 2124 l 257
193.45 2121.65 m 257
 193.45 2061.35 l 257
 806.8 2061.35 l 257
 806.8 2121.65 l 257
 193.45 2121.65 l 257
784 2127 m 257
 784 1636 l 257
 844 1636 l 257
 844 2127 l 257
 784 2127 l 257
481 1795 m 257
 481 1735 l 257
 541 1735 l 257
 541 1795 l 257
 481 1795 l 257
-8 1537.35 m 257
 -4 1477.65 l 257
 1025 1477.65 l 257
 1021 1537.35 l 257
 -8 1537.35 l 257
EndSplineSet
EndChar

StartChar: uni0901
Encoding: 2305 2305 98
GlifName: uni0901
Width: 1024
VWidth: 0
GlyphClass: 2
Flags: W
LayerCount: 2
Fore
SplineSet
134.4 2124 m 257
 134.4 1639 l 257
 194.1 1639 l 257
 194.1 2124 l 257
 134.4 2124 l 257
169 1708 m 257
 169 1647.7 l 257
 803 1647.7 l 257
 803 1708 l 257
 169 1708 l 257
771.6 2132 m 257
 771.6 1641 l 257
 831.6 1641 l 257
 831.6 2132 l 257
 771.6 2132 l 257
445.7 1941.9 m 257
 445.7 1881.9 l 257
 505.7 1881.9 l 257
 505.7 1941.9 l 257
 445.7 1941.9 l 257
-4 1546 m 257
 -4 1486.3 l 257
 1025 1486.3 l 257
 1025 1546 l 257
 -4 1546 l 257
EndSplineSet
EndChar

StartChar: uni0902
Encoding: 2306 2306 99
GlifName: uni0902
Width: 1024
VWidth: 0
GlyphClass: 2
Flags: W
LayerCount: 2
Fore
SplineSet
488.8 1864.1 m 257
 488.8 1804.1 l 257
 548.8 1804.1 l 257
 548.8 1864.1 l 257
 488.8 1864.1 l 257
-4 1658.7 m 257
 -4 1599 l 257
 1025 1599 l 257
 1025 1658.7 l 257
 -4 1658.7 l 257
EndSplineSet
EndChar

StartChar: uni0903
Encoding: 2307 2307 100
GlifName: uni0903
Width: 1018
VWidth: 0
GlyphClass: 2
Flags: W
LayerCount: 2
Fore
SplineSet
489 702.9 m 257
 489 642.9 l 257
 549 642.9 l 257
 549 702.9 l 257
 489 702.9 l 257
470 1349.3 m 257
 470 1289.3 l 257
 530 1289.3 l 257
 530 1349.3 l 257
 470 1349.3 l 257
EndSplineSet
EndChar

StartChar: uni0904
Encoding: 2308 2308 101
GlifName: uni0904
Width: 1024
VWidth: 0
GlyphClass: 2
Flags: W
LayerCount: 2
Fore
SplineSet
266 2062 m 257
 266 1823 l 257
 327 1823 l 257
 327 2062 l 257
 266 2062 l 257
265 1866 m 257
 265 1809 l 257
 948 1809 l 257
 948 1866 l 257
 265 1866 l 257
888 1863 m 257
 888 1545 l 257
 948 1545 l 257
 948 1863 l 257
 888 1863 l 257
716 1553 m 257
 716 1494 l 257
 1013 1494 l 257
 1013 1553 l 257
 716 1553 l 257
915 1518 m 257
 915 1 l 257
 976 1 l 257
 976 1518 l 257
 915 1518 l 257
50 1547 m 257
 50 1487 l 257
 573 1487 l 257
 573 1547 l 257
 50 1547 l 257
540 1550 m 257
 540 34 l 257
 599 34 l 257
 599 1550 l 257
 540 1550 l 257
134 894 m 257
 134 835 l 257
 942 835 l 257
 942 894 l 257
 134 894 l 257
25 65 m 257
 25 1 l 257
 599 1 l 257
 599 65 l 257
 25 65 l 257
EndSplineSet
EndChar

StartChar: uni0905
Encoding: 2309 2309 102
GlifName: a-deva
Width: 1024
VWidth: 0
GlyphClass: 2
Flags: W
LayerCount: 2
Fore
SplineSet
716 1553 m 257
 716 1494 l 257
 1013 1494 l 257
 1013 1553 l 257
 716 1553 l 257
915 1518 m 257
 915 1 l 257
 976 1 l 257
 976 1518 l 257
 915 1518 l 257
50 1547 m 257
 50 1487 l 257
 573 1487 l 257
 573 1547 l 257
 50 1547 l 257
540 1550 m 257
 540 34 l 257
 599 34 l 257
 599 1550 l 257
 540 1550 l 257
134 894 m 257
 134 835 l 257
 942 835 l 257
 942 894 l 257
 134 894 l 257
25 65 m 257
 25 1 l 257
 599 1 l 257
 599 65 l 257
 25 65 l 257
EndSplineSet
EndChar

StartChar: uni0906
Encoding: 2310 2310 103
GlifName: aa-deva
Width: 1024
VWidth: 0
GlyphClass: 2
Flags: W
LayerCount: 2
Fore
SplineSet
516 1553 m 257
 516 1494 l 257
 1017 1494 l 257
 1017 1553 l 257
 516 1553 l 257
717 1518 m 257
 717 1 l 257
 778 1 l 257
 778 1518 l 257
 717 1518 l 257
50 1547 m 257
 50 1487 l 257
 373 1487 l 257
 373 1547 l 257
 50 1547 l 257
340 1550 m 257
 340 34 l 257
 399 34 l 257
 399 1550 l 257
 340 1550 l 257
134 894 m 257
 134 835 l 257
 742 835 l 257
 742 894 l 257
 134 894 l 257
25 65 m 257
 25 1 l 257
 399 1 l 257
 399 65 l 257
 25 65 l 257
900 1518 m 257
 900 1 l 257
 961 1 l 257
 961 1518 l 257
 900 1518 l 257
EndSplineSet
EndChar

StartChar: uni0907
Encoding: 2311 2311 104
GlifName: i-deva
Width: 1024
VWidth: 0
GlyphClass: 2
Flags: W
LayerCount: 2
Fore
SplineSet
-9 1554 m 257
 -9 1493 l 257
 1028 1493 l 257
 1028 1554 l 257
 -9 1554 l 257
687 1553 m 257
 687 1173 l 257
 746 1173 l 257
 746 1553 l 257
 687 1553 l 257
165 1205 m 257
 165 1144 l 257
 746 1144 l 257
 746 1205 l 257
 165 1205 l 257
165 1181 m 257
 165 845 l 257
 224 845 l 257
 224 1181 l 257
 165 1181 l 257
165 881 m 257
 165 819 l 257
 811 819 l 257
 811 881 l 257
 165 881 l 257
778 881 m 257
 778 285 l 257
 838 285 l 257
 838 881 l 257
 778 881 l 257
143 298 m 257
 143 237 l 257
 841 237 l 257
 841 298 l 257
 143 298 l 257
259 298 m 257
 259 -244 l 257
 319 -244 l 257
 319 298 l 257
 259 298 l 257
EndSplineSet
PickledDataWithLists: "(dp0
."
EndChar

StartChar: uni0908
Encoding: 2312 2312 105
GlifName: ii-deva
Width: 1024
VWidth: 0
GlyphClass: 2
Flags: W
LayerCount: 2
Fore
SplineSet
-12 1556 m 257
 -12 1496 l 257
 1025 1496 l 257
 1025 1556 l 257
 -12 1556 l 257
686 1553 m 257
 686 1183 l 257
 746 1183 l 257
 746 1553 l 257
 686 1553 l 257
165 1207 m 257
 165 1146 l 257
 746 1146 l 257
 746 1207 l 257
 165 1207 l 257
165 1181 m 257
 165 849 l 257
 225 849 l 257
 225 1181 l 257
 165 1181 l 257
165 881 m 257
 165 821 l 257
 816 821 l 257
 816 881 l 257
 165 881 l 257
778 881 m 257
 778 285 l 257
 838 285 l 257
 838 881 l 257
 778 881 l 257
143 298 m 257
 143 237 l 257
 841 237 l 257
 841 298 l 257
 143 298 l 257
259 298 m 257
 259 -244 l 257
 319 -244 l 257
 319 298 l 257
 259 298 l 257
311 1860 m 257
 541 1553 l 257
 645 1549 l 257
 388 1908 l 257
 311 1860 l 257
EndSplineSet
PickledDataWithLists: "(dp0
."
EndChar

StartChar: uni0909
Encoding: 2313 2313 106
GlifName: u-deva
Width: 1024
VWidth: 0
GlyphClass: 2
Flags: W
LayerCount: 2
Fore
SplineSet
-4 1552 m 257
 -4 1493 l 257
 1022 1493 l 257
 1022 1552 l 257
 -4 1552 l 257
620 1530 m 257
 620 1001 l 257
 679 1001 l 257
 679 1530 l 257
 620 1530 l 257
235 1044 m 257
 235 985 l 257
 877 985 l 257
 877 1044 l 257
 235 1044 l 257
818 994 m 257
 818 -9 l 257
 878 -9 l 257
 878 994 l 257
 818 994 l 257
130 46 m 257
 130 -15 l 257
 867 -15 l 257
 867 46 l 257
 130 46 l 257
130 346 m 257
 130 19 l 257
 189 19 l 257
 189 346 l 257
 130 346 l 257
EndSplineSet
PickledDataWithLists: "(dp0
."
EndChar

StartChar: uni090A
Encoding: 2314 2314 107
GlifName: uu-deva
Width: 1024
VWidth: 0
GlyphClass: 2
Flags: W
LayerCount: 2
Fore
SplineSet
-4 1551 m 257
 -4 1490 l 257
 1022 1490 l 257
 1022 1551 l 257
 -4 1551 l 257
331 1530 m 257
 331 1001 l 257
 392 1001 l 257
 392 1530 l 257
 331 1530 l 257
151 1044 m 257
 151 983 l 257
 956 983 l 257
 956 1044 l 257
 151 1044 l 257
626 994 m 257
 626 -9 l 257
 687 -9 l 257
 687 994 l 257
 626 994 l 257
46 46 m 257
 46 -15 l 257
 684 -15 l 257
 684 46 l 257
 46 46 l 257
46 346 m 257
 46 19 l 257
 107 19 l 257
 107 346 l 257
 46 346 l 257
896 1023 m 257
 896 197 l 257
 956 197 l 257
 956 1023 l 257
 896 1023 l 257
EndSplineSet
PickledDataWithLists: "(dp0
."
EndChar

StartChar: uni090B
Encoding: 2315 2315 108
GlifName: rV_ocalic-deva
Width: 1024
VWidth: 0
GlyphClass: 2
Flags: W
LayerCount: 2
Fore
SplineSet
4 1552 m 257
 4 1492 l 257
 1021 1492 l 257
 1021 1552 l 257
 4 1552 l 257
512 1533 m 257
 512 0 l 257
 571 0 l 257
 571 1533 l 257
 512 1533 l 257
22 1043 m 257
 22 983 l 257
 325 983 l 257
 325 1043 l 257
 22 1043 l 257
533 471 m 257
 86 422 l 257
 171 376 l 257
 568 417 l 257
 533 471 l 257
325 1043 m 257
 325 983 l 257
 560 902 l 257
 559 958 l 257
 325 1043 l 257
559 897 m 257
 559 837 l 257
 900 837 l 257
 900 897 l 257
 559 897 l 257
858 897 m 257
 858 265 l 257
 919 265 l 257
 919 897 l 257
 858 897 l 257
858 324 m 257
 858 264 l 257
 1028 264 l 257
 1028 324 l 257
 858 324 l 257
EndSplineSet
PickledDataWithLists: "(dp0
."
EndChar

StartChar: uni090C
Encoding: 2316 2316 109
GlifName: lV_ocalic-deva
Width: 1024
VWidth: 0
GlyphClass: 2
Flags: W
LayerCount: 2
Fore
SplineSet
-16 1551 m 257
 -16 1491 l 257
 1023 1491 l 257
 1023 1551 l 257
 -16 1551 l 257
697 1551 m 257
 697 759 l 257
 757 759 l 257
 757 1551 l 257
 697 1551 l 257
956 791 m 257
 39 791 l 257
 39 731 l 257
 956 731 l 257
 956 791 l 257
42 777 m 257
 42 252 l 257
 102 252 l 257
 102 777 l 257
 42 777 l 257
464 791 m 257
 464 433 l 257
 524 433 l 257
 524 791 l 257
 464 791 l 257
885 792 m 257
 885 73 l 257
 945 73 l 257
 945 792 l 257
 885 792 l 257
929 132 m 257
 929 71 l 257
 1021 71 l 257
 1021 132 l 257
 929 132 l 257
EndSplineSet
EndChar

StartChar: uni090D
Encoding: 2317 2317 110
GlifName: uni090D_
Width: 1024
VWidth: 0
GlyphClass: 2
Flags: W
LayerCount: 2
Fore
SplineSet
-9 1553 m 257
 -9 1493 l 257
 1026 1493 l 257
 1026 1553 l 257
 -9 1553 l 257
865 1545 m 257
 865 779 l 257
 924 779 l 257
 924 1545 l 257
 865 1545 l 257
631 839 m 257
 631 779 l 257
 924 779 l 257
 924 839 l 257
 631 839 l 257
138 1542 m 257
 138 338 l 257
 198 338 l 257
 198 1542 l 257
 138 1542 l 257
138 358 m 257
 138 297 l 257
 738 297 l 257
 738 358 l 257
 138 358 l 257
685 358 m 257
 685 -98 l 257
 745 -98 l 257
 745 358 l 257
 685 358 l 257
383 -38 m 257
 383 -98 l 257
 743 -98 l 257
 743 -38 l 257
 383 -38 l 257
153 2124 m 257
 153 1639 l 257
 212 1639 l 257
 212 2124 l 257
 153 2124 l 257
199 1702 m 257
 199 1641 l 257
 793 1641 l 257
 793 1702 l 257
 199 1702 l 257
757 2132 m 257
 757 1641 l 257
 817 1641 l 257
 817 2132 l 257
 757 2132 l 257
EndSplineSet
EndChar

StartChar: uni090E
Encoding: 2318 2318 111
GlifName: uni090E_
Width: 1024
VWidth: 0
GlyphClass: 2
Flags: W
LayerCount: 2
Fore
SplineSet
-9 1553 m 257
 -9 1493 l 257
 1026 1493 l 257
 1026 1553 l 257
 -9 1553 l 257
865 1545 m 257
 865 779 l 257
 924 779 l 257
 924 1545 l 257
 865 1545 l 257
631 839 m 257
 631 779 l 257
 924 779 l 257
 924 839 l 257
 631 839 l 257
138 1542 m 257
 138 338 l 257
 198 338 l 257
 198 1542 l 257
 138 1542 l 257
138 358 m 257
 138 297 l 257
 738 297 l 257
 738 358 l 257
 138 358 l 257
685 358 m 257
 685 -98 l 257
 745 -98 l 257
 745 358 l 257
 685 358 l 257
383 -38 m 257
 383 -98 l 257
 743 -98 l 257
 743 -38 l 257
 383 -38 l 257
266 2062 m 257
 266 1823 l 257
 327 1823 l 257
 327 2062 l 257
 266 2062 l 257
265 1866 m 257
 265 1809 l 257
 948 1809 l 257
 948 1866 l 257
 265 1866 l 257
891 1858 m 257
 891 1540 l 257
 951 1540 l 257
 951 1858 l 257
 891 1858 l 257
EndSplineSet
EndChar

StartChar: uni090F
Encoding: 2319 2319 112
GlifName: e-deva
Width: 1024
VWidth: 0
GlyphClass: 2
Flags: W
LayerCount: 2
Fore
SplineSet
-9 1553 m 257
 -9 1493 l 257
 1026 1493 l 257
 1026 1553 l 257
 -9 1553 l 257
865 1545 m 257
 865 779 l 257
 924 779 l 257
 924 1545 l 257
 865 1545 l 257
631 839 m 257
 631 779 l 257
 924 779 l 257
 924 839 l 257
 631 839 l 257
138 1542 m 257
 138 338 l 257
 198 338 l 257
 198 1542 l 257
 138 1542 l 257
138 358 m 257
 138 297 l 257
 738 297 l 257
 738 358 l 257
 138 358 l 257
685 358 m 257
 685 -98 l 257
 745 -98 l 257
 745 358 l 257
 685 358 l 257
383 -38 m 257
 383 -98 l 257
 743 -98 l 257
 743 -38 l 257
 383 -38 l 257
EndSplineSet
PickledDataWithLists: "(dp0
."
EndChar

StartChar: uni0910
Encoding: 2320 2320 113
GlifName: ai-deva
Width: 1024
VWidth: 0
GlyphClass: 2
Flags: W
LayerCount: 2
Fore
SplineSet
-9 1553 m 257
 -9 1493 l 257
 1026 1493 l 257
 1026 1553 l 257
 -9 1553 l 257
863 1545 m 257
 863 779 l 257
 924 779 l 257
 924 1545 l 257
 863 1545 l 257
631 840 m 257
 631 779 l 257
 924 779 l 257
 924 840 l 257
 631 840 l 257
138 1542 m 257
 138 338 l 257
 199 338 l 257
 199 1542 l 257
 138 1542 l 257
138 359 m 257
 138 297 l 257
 738 297 l 257
 738 359 l 257
 138 359 l 257
698 358 m 257
 698 -98 l 257
 756 -98 l 257
 756 358 l 257
 698 358 l 257
383 -37 m 257
 383 -98 l 257
 743 -98 l 257
 743 -37 l 257
 383 -37 l 257
552 1962 m 257
 850 1547 l 257
 922 1547 l 257
 606 1998 l 257
 552 1962 l 257
EndSplineSet
PickledDataWithLists: "(dp0
."
EndChar

StartChar: uni0911
Encoding: 2321 2321 114
GlifName: oC_andra-deva
Width: 1024
VWidth: 0
GlyphClass: 2
Flags: W
LayerCount: 2
Fore
SplineSet
528 1548 m 257
 528 1487 l 257
 1016 1487 l 257
 1016 1548 l 257
 528 1548 l 257
544 1506 m 257
 544 1 l 257
 605 1 l 257
 605 1506 l 257
 544 1506 l 257
25 1548 m 257
 25 1488 l 257
 385 1488 l 257
 385 1548 l 257
 25 1548 l 257
351 1548 m 257
 351 30 l 257
 411 30 l 257
 411 1548 l 257
 351 1548 l 257
109 894 m 257
 109 834 l 257
 581 834 l 257
 581 894 l 257
 109 894 l 257
0 61 m 257
 0 1 l 257
 411 1 l 257
 411 61 l 257
 0 61 l 257
811 1504 m 257
 811 2 l 257
 871 2 l 257
 871 1504 l 257
 811 1504 l 257
526 2085 m 257
 526 1639 l 257
 587 1639 l 257
 587 2085 l 257
 526 2085 l 257
532 1701 m 257
 532 1641 l 257
 1023 1641 l 257
 1023 1701 l 257
 532 1701 l 257
952 2083 m 257
 952 1641 l 257
 1023 1641 l 257
 1023 2083 l 257
 952 2083 l 257
EndSplineSet
PickledDataWithLists: "(dp0
."
EndChar

StartChar: uni0912
Encoding: 2322 2322 115
GlifName: oS_hort-deva
Width: 1024
VWidth: 0
GlyphClass: 2
Flags: W
LayerCount: 2
Fore
SplineSet
516 1553 m 257
 516 1494 l 257
 1017 1494 l 257
 1017 1553 l 257
 516 1553 l 257
717 1518 m 257
 717 1 l 257
 778 1 l 257
 778 1518 l 257
 717 1518 l 257
50 1547 m 257
 50 1487 l 257
 373 1487 l 257
 373 1547 l 257
 50 1547 l 257
340 1550 m 257
 340 34 l 257
 399 34 l 257
 399 1550 l 257
 340 1550 l 257
134 894 m 257
 134 835 l 257
 742 835 l 257
 742 894 l 257
 134 894 l 257
25 65 m 257
 25 1 l 257
 399 1 l 257
 399 65 l 257
 25 65 l 257
900 1518 m 257
 900 1 l 257
 961 1 l 257
 961 1518 l 257
 900 1518 l 257
266 2062 m 257
 266 1823 l 257
 327 1823 l 257
 327 2062 l 257
 266 2062 l 257
265 1866 m 257
 265 1809 l 257
 948 1809 l 257
 948 1866 l 257
 265 1866 l 257
888 1863 m 257
 888 1545 l 257
 948 1545 l 257
 948 1863 l 257
 888 1863 l 257
EndSplineSet
PickledDataWithLists: "(dp0
."
EndChar

StartChar: uni0913
Encoding: 2323 2323 116
GlifName: o-deva
Width: 1024
VWidth: 0
GlyphClass: 2
Flags: W
LayerCount: 2
Fore
SplineSet
516 1553 m 257
 516 1494 l 257
 1017 1494 l 257
 1017 1553 l 257
 516 1553 l 257
717 1518 m 257
 717 1 l 257
 778 1 l 257
 778 1518 l 257
 717 1518 l 257
50 1547 m 257
 50 1487 l 257
 373 1487 l 257
 373 1547 l 257
 50 1547 l 257
340 1550 m 257
 340 34 l 257
 399 34 l 257
 399 1550 l 257
 340 1550 l 257
134 894 m 257
 134 835 l 257
 742 835 l 257
 742 894 l 257
 134 894 l 257
25 65 m 257
 25 1 l 257
 399 1 l 257
 399 65 l 257
 25 65 l 257
900 1518 m 257
 900 1 l 257
 961 1 l 257
 961 1518 l 257
 900 1518 l 257
698 1807 m 257
 779 1529 l 257
 855 1549 l 257
 771 1826 l 257
 698 1807 l 257
EndSplineSet
EndChar

StartChar: uni0914
Encoding: 2324 2324 117
GlifName: au-deva
Width: 1024
VWidth: 0
GlyphClass: 2
Flags: W
LayerCount: 2
Fore
SplineSet
516 1553 m 257
 516 1494 l 257
 1017 1494 l 257
 1017 1553 l 257
 516 1553 l 257
717 1518 m 257
 717 1 l 257
 778 1 l 257
 778 1518 l 257
 717 1518 l 257
50 1547 m 257
 50 1487 l 257
 373 1487 l 257
 373 1547 l 257
 50 1547 l 257
340 1550 m 257
 340 34 l 257
 399 34 l 257
 399 1550 l 257
 340 1550 l 257
134 894 m 257
 134 835 l 257
 742 835 l 257
 742 894 l 257
 134 894 l 257
25 65 m 257
 25 1 l 257
 399 1 l 257
 399 65 l 257
 25 65 l 257
900 1518 m 257
 900 1 l 257
 961 1 l 257
 961 1518 l 257
 900 1518 l 257
472 1682 m 257
 713 1525 l 257
 777 1540 l 257
 513 1731 l 257
 472 1682 l 257
584 1751 m 257
 787 1542 l 257
 868 1549 l 257
 637 1783 l 257
 584 1751 l 257
EndSplineSet
EndChar

StartChar: uni0915
Encoding: 2325 2325 118
GlifName: ka-deva
Width: 1024
VWidth: 0
GlyphClass: 2
Flags: W
LayerCount: 2
Fore
SplineSet
-2 1554 m 257
 -2 1499 l 257
 1019 1492 l 257
 1022 1554 l 257
 -2 1554 l 257
596 1509 m 257
 596 0 l 257
 656 0 l 257
 656 1509 l 257
 596 1509 l 257
179 1067 m 257
 180 1010 l 257
 616 1008 l 257
 615 1069 l 257
 179 1067 l 257
168 1068 m 257
 167 510 l 257
 229 510 l 257
 228 1068 l 257
 168 1068 l 257
183 572 m 257
 183 511 l 257
 643 511 l 257
 643 572 l 257
 183 572 l 257
621 999 m 257
 621 938 l 257
 886 938 l 257
 886 999 l 257
 621 999 l 257
836 998 m 257
 839 779 l 257
 899 779 l 257
 898 1000 l 257
 836 998 l 257
EndSplineSet
EndChar

StartChar: uni0916
Encoding: 2326 2326 119
GlifName: uni0916
Width: 1024
VWidth: 0
GlyphClass: 2
Flags: W
LayerCount: 2
Fore
SplineSet
-8 1556 m 257
 -8 1496 l 257
 1019 1496 l 257
 1019 1556 l 257
 -8 1556 l 257
826 1514 m 257
 826 0 l 257
 887 0 l 257
 887 1514 l 257
 826 1514 l 257
407 979 m 257
 407 919 l 257
 669 919 l 257
 669 979 l 257
 407 979 l 257
377 979 m 257
 377 414 l 257
 438 414 l 257
 438 979 l 257
 377 979 l 257
377 429 m 257
 377 368 l 257
 842 368 l 257
 842 429 l 257
 377 429 l 257
180 1510 m 257
 180 120 l 257
 241 120 l 257
 241 1510 l 257
 180 1510 l 257
9 714 m 257
 9 654 l 257
 240 654 l 257
 240 714 l 257
 9 714 l 257
180 130 m 257
 180 70 l 257
 824 70 l 257
 824 130 l 257
 180 130 l 257
EndSplineSet
PickledDataWithLists: "(dp0
."
EndChar

StartChar: uni0917
Encoding: 2327 2327 120
GlifName: uni0917
Width: 1024
VWidth: 0
GlyphClass: 2
Flags: W
LayerCount: 2
Fore
SplineSet
102 853 m 257
 102 1044 l 257
 172 1044 l 257
 172 853 l 257
 102 853 l 257
102 882 m 257
 449 882 l 257
 449 812 l 257
 102 812 l 257
 102 882 l 257
379 1556 m 257
 449 1556 l 257
 449 812 l 257
 379 812 l 257
 379 1556 l 257
1012 1557 m 257
 1012 1496 l 257
 261 1496 l 257
 261 1557 l 257
 1012 1557 l 257
861 1523 m 257
 931 1523 l 257
 931 0 l 257
 861 0 l 257
 861 1523 l 257
EndSplineSet
EndChar

StartChar: uni0918
Encoding: 2328 2328 121
GlifName: gha-deva
Width: 1024
VWidth: 0
GlyphClass: 2
Flags: W
LayerCount: 2
Fore
SplineSet
1 1554 m 257
 1 1495 l 257
 1022 1495 l 257
 1022 1554 l 257
 1 1554 l 257
841 1522 m 257
 841 13 l 257
 901 13 l 257
 901 1522 l 257
 841 1522 l 257
173 1515 m 257
 173 859 l 257
 232 859 l 257
 232 1515 l 257
 173 1515 l 257
218 867 m 257
 218 807 l 257
 462 807 l 257
 462 867 l 257
 218 867 l 257
179 328 m 257
 179 269 l 257
 877 269 l 257
 877 328 l 257
 179 328 l 257
173 269 m 257
 233 269 l 257
 233 814 l 257
 173 814 l 257
 173 269 l 257
EndSplineSet
PickledDataWithLists: "(dp0
."
EndChar

StartChar: uni0919
Encoding: 2329 2329 122
GlifName: nga-deva
Width: 1024
VWidth: 0
GlyphClass: 2
Flags: W
LayerCount: 2
Fore
SplineSet
-4 1554 m 257
 -4 1494 l 257
 1022 1494 l 257
 1022 1554 l 257
 -4 1554 l 257
649 1543 m 257
 649 1026 l 257
 709 1026 l 257
 709 1543 l 257
 649 1543 l 257
700 1086 m 257
 237 1086 l 257
 237 1026 l 257
 700 1026 l 257
 700 1086 l 257
225 1083 m 257
 225 629 l 257
 297 629 l 257
 297 1083 l 257
 225 1083 l 257
231 680 m 257
 231 620 l 257
 786 620 l 257
 786 680 l 257
 231 680 l 257
723 680 m 257
 723 29 l 257
 786 29 l 257
 786 680 l 257
 723 680 l 257
112 61 m 257
 112 0 l 257
 787 0 l 257
 787 61 l 257
 112 61 l 257
112 202 m 257
 112 8 l 257
 172 8 l 257
 172 202 l 257
 112 202 l 257
771 931 m 257
 771 835 l 257
 867 835 l 257
 867 931 l 257
 771 931 l 257
EndSplineSet
PickledDataWithLists: "(dp0
."
EndChar

StartChar: uni091A
Encoding: 2330 2330 123
GlifName: ca-deva
Width: 1024
VWidth: 0
GlyphClass: 2
Flags: W
LayerCount: 2
Fore
SplineSet
0 1556 m 257
 0 1497 l 257
 1022 1497 l 257
 1022 1556 l 257
 0 1556 l 257
777 1553 m 257
 777 -2 l 257
 836 -2 l 257
 836 1553 l 257
 777 1553 l 257
803 421 m 257
 803 480 l 257
 296 480 l 257
 296 421 l 257
 803 421 l 257
296 837 m 257
 296 421 l 257
 355 421 l 257
 355 837 l 257
 296 837 l 257
72 852 m 257
 72 791 l 257
 497 791 l 257
 497 852 l 257
 72 852 l 257
EndSplineSet
PickledDataWithLists: "(dp0
."
EndChar

StartChar: uni091B
Encoding: 2331 2331 124
GlifName: cha-deva
Width: 1024
VWidth: 0
GlyphClass: 2
Flags: W
LayerCount: 2
Fore
SplineSet
-6 1555 m 257
 -6 1495 l 257
 1016 1495 l 257
 1016 1555 l 257
 -6 1555 l 257
530 1128 m 257
 145 1128 l 257
 145 1069 l 257
 530 1069 l 257
 530 1128 l 257
136 1128 m 257
 136 538 l 257
 196 538 l 257
 196 1128 l 257
 136 1128 l 257
167 547 m 257
 167 487 l 257
 530 487 l 257
 530 547 l 257
 167 547 l 257
135 501 m 257
 135 0 l 257
 195 0 l 257
 195 501 l 257
 135 501 l 257
191 59 m 257
 191 0 l 257
 826 0 l 257
 826 59 l 257
 191 59 l 257
767 6 m 257
 826 6 l 257
 826 1515 l 257
 767 1515 l 257
 767 6 l 257
659 869 m 257
 659 808 l 257
 997 808 l 257
 997 869 l 257
 659 869 l 257
938 868 m 257
 938 471 l 257
 997 471 l 257
 997 868 l 257
 938 868 l 257
EndSplineSet
PickledDataWithLists: "(dp0
."
EndChar

StartChar: uni091C
Encoding: 2332 2332 125
GlifName: ja-deva
Width: 1024
VWidth: 0
GlyphClass: 2
Flags: W
LayerCount: 2
Fore
SplineSet
-34 1551 m 257
 -34 1492 l 257
 1024 1492 l 257
 1024 1551 l 257
 -34 1551 l 257
816 1551 m 257
 816 -12 l 257
 877 -12 l 257
 877 1551 l 257
 816 1551 l 257
501 860 m 257
 501 801 l 257
 837 801 l 257
 837 860 l 257
 501 860 l 257
491 860 m 257
 491 512 l 257
 551 512 l 257
 551 860 l 257
 491 860 l 257
41 567 m 257
 41 508 l 257
 551 508 l 257
 551 567 l 257
 41 567 l 257
41 727 m 257
 41 509 l 257
 101 509 l 257
 101 727 l 257
 41 727 l 257
EndSplineSet
PickledDataWithLists: "(dp0
."
EndChar

StartChar: uni091D
Encoding: 2333 2333 126
GlifName: jha-deva
Width: 1024
VWidth: 0
GlyphClass: 2
Flags: W
LayerCount: 2
Fore
SplineSet
-18 1554 m 257
 -18 1494 l 257
 1023 1494 l 257
 1023 1554 l 257
 -18 1554 l 257
819 1554 m 257
 819 -5 l 257
 880 -5 l 257
 880 1554 l 257
 819 1554 l 257
586 1537 m 257
 586 1024 l 257
 646 1024 l 257
 646 1537 l 257
 586 1537 l 257
125 1084 m 257
 125 1024 l 257
 646 1024 l 257
 646 1084 l 257
 125 1084 l 257
125 1085 m 257
 125 651 l 257
 185 651 l 257
 185 1085 l 257
 125 1085 l 257
125 698 m 257
 125 638 l 257
 874 638 l 257
 874 698 l 257
 125 698 l 257
558 691 m 257
 558 7 l 257
 618 7 l 257
 618 691 l 257
 558 691 l 257
125 63 m 257
 125 3 l 257
 618 3 l 257
 618 63 l 257
 125 63 l 257
125 63 m 257
 125 -148 l 257
 185 -148 l 257
 185 63 l 257
 125 63 l 257
EndSplineSet
PickledDataWithLists: "(dp0
."
EndChar

StartChar: uni091E
Encoding: 2334 2334 127
GlifName: nya-deva
Width: 1024
VWidth: 0
GlyphClass: 2
Flags: W
LayerCount: 2
Fore
SplineSet
-5 1554 m 257
 -5 1493 l 257
 1029 1493 l 257
 1029 1554 l 257
 -5 1554 l 257
875 1538 m 257
 875 -8 l 257
 935 -8 l 257
 935 1538 l 257
 875 1538 l 257
582 672 m 257
 582 612 l 257
 896 612 l 257
 896 672 l 257
 582 672 l 257
84 960 m 257
 84 900 l 257
 581 900 l 257
 581 960 l 257
 84 960 l 257
551 960 m 257
 551 316 l 257
 611 316 l 257
 611 960 l 257
 551 960 l 257
61 320 m 257
 61 260 l 257
 611 260 l 257
 611 320 l 257
 61 320 l 257
EndSplineSet
PickledDataWithLists: "(dp0
."
EndChar

StartChar: v
Encoding: 118 118 128
GlifName: v
Width: 1024
VWidth: 0
GlyphClass: 2
Flags: W
LayerCount: 2
Fore
SplineSet
96 1025 m 257
 483 0 l 257
 542 0 l 257
 156 1023 l 257
 96 1025 l 257
867 1024 m 257
 483 0 l 257
 542 1 l 257
 927 1025 l 257
 867 1024 l 257
EndSplineSet
EndChar

StartChar: w
Encoding: 119 119 129
GlifName: w
Width: 1024
VWidth: 0
GlyphClass: 2
Flags: W
LayerCount: 2
Fore
SplineSet
104 1023 m 257
 104 1 l 257
 164 0 l 257
 164 1023 l 257
 104 1023 l 257
862 1028 m 257
 862 12 l 257
 922 12 l 257
 922 1028 l 257
 862 1028 l 257
483 610 m 257
 483 1 l 257
 542 1 l 257
 542 610 l 257
 483 610 l 257
103 59 m 257
 105 0 l 257
 922 0 l 257
 922 59 l 257
 103 59 l 257
EndSplineSet
EndChar

StartChar: x
Encoding: 120 120 130
GlifName: x
Width: 1200
VWidth: 0
GlyphClass: 2
Flags: W
LayerCount: 2
Fore
SplineSet
92 0 m 257
 1041 1024 l 257
 1101 1024 l 257
 154 2 l 257
 92 0 l 257
99 1024 m 257
 159 1024 l 257
 1111 -3 l 257
 1048 0 l 257
 99 1024 l 257
EndSplineSet
EndChar

StartChar: y
Encoding: 121 121 131
GlifName: y
Width: 1024
VWidth: 0
GlyphClass: 2
Flags: W
LayerCount: 2
Fore
SplineSet
817 1023 m 257
 817 -410 l 257
 877 -410 l 257
 877 1023 l 257
 817 1023 l 257
147 -351 m 257
 147 -410 l 257
 864 -410 l 257
 864 -351 l 257
 147 -351 l 257
147 1023 m 257
 147 264 l 257
 207 264 l 257
 207 1023 l 257
 147 1023 l 257
147 324 m 257
 147 264 l 257
 837 264 l 257
 837 324 l 257
 147 324 l 257
EndSplineSet
EndChar

StartChar: z
Encoding: 122 122 132
GlifName: z
Width: 1024
VWidth: 0
GlyphClass: 2
Flags: W
LayerCount: 2
Fore
SplineSet
98 1024 m 257
 98 964 l 257
 926 964 l 257
 926 1024 l 257
 98 1024 l 257
98 59 m 257
 98 0 l 257
 926 0 l 257
 926 59 l 257
 98 59 l 257
849 964 m 257
 98 59 l 257
 176 59 l 257
 926 964 l 257
 849 964 l 257
EndSplineSet
EndChar

StartChar: zero
Encoding: 48 48 133
GlifName: zero
Width: 1200
VWidth: 0
GlyphClass: 2
Flags: W
LayerCount: 2
Fore
SplineSet
98 0 m 257
 98 860 l 257
 194 860 l 257
 194 0 l 257
 98 0 l 257
98 935 m 257
 98 1640 l 257
 200 1640 l 257
 200 935 l 257
 98 935 l 257
204 105 m 257
 964 90 l 257
 960 0 l 257
 210 0 l 257
 204 105 l 257
230 1520 m 257
 230 1630 l 257
 970 1640 l 257
 970 1520 l 257
 230 1520 l 257
994 0 m 257
 994 845 l 257
 1102 845 l 257
 1102 0 l 257
 994 0 l 257
1010 935 m 257
 1010 1640 l 257
 1102 1640 l 257
 1102 935 l 257
 1010 935 l 257
458 1013 m 257
 458 709 l 257
 679 709 l 257
 679 1013 l 257
 458 1013 l 257
EndSplineSet
EndChar
